<svg width="344" height="476" viewBox="0 0 344 476" fill="none" xmlns="http://www.w3.org/2000/svg">
<path d="M343.199 212.931C343.199 221.241 335.194 229.421 305.612 233.581C263.128 239.581 269.64 221.001 269.67 212.691C269.701 204.381 282.318 193.561 302.636 193.621C322.953 193.681 343.27 204.621 343.27 212.931" fill="black"/>
<path d="M326.051 213.741C326.051 221.571 309.533 227.871 289.216 227.801C268.898 227.731 252.441 221.331 252.472 213.491C252.502 205.651 268.99 199.371 289.307 199.441C309.625 199.511 326.072 205.911 326.051 213.741Z" fill="#AED8C7"/>
<path d="M0.728271 211.801C0.728271 222.521 23.6261 232.261 51.9689 232.361C80.3118 232.461 103.311 222.861 103.352 212.141C103.392 201.421 80.454 191.311 52.1111 191.251C23.7683 191.191 0.758748 201.081 0.728271 211.801Z" fill="black"/>
<path d="M13.2744 211.841C13.2744 219.701 30.0668 226.131 50.8617 226.201C71.6566 226.271 88.449 219.951 88.5303 212.091C88.6115 204.231 71.7379 197.811 50.9429 197.741C30.148 197.671 13.3049 203.981 13.2744 211.841Z" fill="#AED8C7"/>
<path d="M304.027 311.671C305.043 303.111 300.035 285.531 295.321 278.271C291.085 271.731 287.905 270.721 288.576 247.961C288.789 240.451 295.839 185.671 318.92 177.321C328.591 173.811 288.281 171.491 293.716 161.321C299.151 151.151 250.755 103.311 250.755 103.311L124.614 74.4309L59.9738 161.311L49.6729 163.991L42.3586 176.791C42.3586 176.791 44.492 232.941 45.1523 253.181C45.6805 269.481 43.8621 272.701 43.0088 274.651C42.1554 276.601 35.7656 290.221 34.4755 295.761C33.551 299.761 33.4596 308.661 35.8672 311.991C37.3605 314.091 43.151 315.991 46.0869 314.041C50.3739 311.131 45.4875 326.401 45.4773 328.131C45.4672 329.861 43.9129 344.361 49.2767 358.531C54.2139 371.531 56.1644 371.531 58.4805 372.241C60.2685 372.761 59.6894 368.111 60.7459 367.991C63.0012 367.731 61.6907 376.311 67.5625 393.921C71.3517 405.291 79.7529 411.361 80.5249 411.171C81.297 410.981 83.3186 408.991 83.9891 406.061C84.2634 404.871 85.3605 409.791 87.7681 412.481C91.4001 416.653 95.4352 420.467 99.8164 423.871C102.935 426.121 124.807 456.541 132.853 442.471C133.273 441.55 133.554 440.573 133.686 439.571C133.858 438.101 133.523 436.411 134.387 436.571C134.651 436.621 135.707 436.301 135.971 437.931C138.125 451.331 143.631 456.931 145.856 458.931C148.69 461.461 155.364 459.811 158.199 456.851C159.336 455.671 156.441 475.771 173.193 475.511C178.608 475.431 184.845 472.851 193.348 457.321C194.77 454.731 195.014 450.241 196.721 449.521C197.442 449.211 198.437 449.971 199.88 451.201C203.618 454.391 225.551 454.201 250.877 403.061C252.614 399.561 251.537 414.111 256.637 414.571C263.301 415.181 267.466 400.331 268.827 398.791C268.827 398.791 276.172 381.391 276.771 366.981C277.015 361.051 280.388 371.761 282.43 375.881C282.765 376.551 284.075 378.391 286.006 378.271C287.184 378.211 288.596 377.411 290.15 375.161C291.425 373.231 292.449 371.151 293.198 368.971C295.829 359.121 296.357 339.141 294.051 328.241C293.473 325.516 293.113 322.751 292.974 319.971C292.792 317.081 296.743 322.971 298.257 322.881C301.416 322.621 303.621 314.821 303.976 311.711" fill="black"/>
<path d="M124.421 371.171C118.549 365.981 103.484 345.021 121.587 339.001C129.531 336.351 143.012 343.431 158.097 345.201C177.399 347.471 189.854 343.591 202.796 339.511C227.746 331.611 220.37 359.301 215.819 363.251C211.268 367.201 194.913 386.801 154.471 383.481C144.596 382.671 130.262 376.301 124.462 371.171" fill="#33504A"/>
<path d="M162.059 387.541C162.059 387.541 164.69 378.541 162.059 374.391C160.98 373.26 159.638 372.406 158.148 371.901C145.673 367.901 139.05 381.281 139.05 381.281C142.808 384.031 143.062 384.561 162.069 387.541" fill="black"/>
<path d="M144.18 383.841C144.18 383.841 144.555 369.281 138.145 366.261C135.042 364.734 131.545 364.156 128.106 364.601C124.666 365.047 121.44 366.496 118.844 368.761C121.333 371.831 127.326 378.391 144.139 383.841" fill="black"/>
<path d="M185.648 342.391C185.648 342.391 190.646 355.231 203.71 353.311C217.445 351.311 217.384 336.791 216.916 336.881C206.398 338.184 195.955 340.017 185.627 342.371" fill="black"/>
<path d="M162.801 345.181C162.801 345.181 167.585 358.541 178.638 357.521C191.845 356.311 192.657 342.521 192.231 342.591C191.804 342.661 177.125 344.261 162.77 345.181" fill="black"/>
<path d="M139.852 340.861C139.852 340.861 140.512 354.801 151.23 356.931C163.999 359.471 169.13 345.351 168.703 345.321C159.003 344.412 149.368 342.922 139.852 340.861Z" fill="black"/>
<path d="M116.071 335.311C116.05 338.727 117.103 342.065 119.086 344.869C121.068 347.672 123.883 349.804 127.144 350.971C138.785 355.381 145.429 341.821 145.033 341.791C135.528 339.031 125.854 336.867 116.071 335.311Z" fill="black"/>
<path d="M212.152 182.591C190.707 180.591 171.517 195.451 167.636 216.271C165.956 205.978 160.417 196.679 152.112 190.21C143.807 183.741 133.34 180.572 122.777 181.33C112.215 182.087 102.324 186.715 95.0589 194.3C87.7935 201.885 83.6811 211.875 83.5336 222.299C83.3862 232.723 87.2143 242.823 94.2623 250.604C101.31 258.386 111.066 263.283 121.603 264.329C132.14 265.376 142.693 262.495 151.177 256.256C159.662 250.018 165.463 240.874 167.433 230.631C168.821 239.601 173.202 247.86 179.887 254.107C186.571 260.354 195.178 264.233 204.35 265.131C227.085 267.211 247.26 250.421 249.414 227.631C251.568 204.841 234.887 184.631 212.152 182.631" fill="#AED8C7"/>
<path d="M174.839 300.311C175.631 299.171 184.185 294.151 186.389 294.231C188.594 294.311 191.702 297.561 193.114 298.741C194.13 299.591 199.525 304.951 198.854 305.651C198.184 306.351 194.791 304.111 194.384 303.921C192.921 303.191 189.305 300.121 188.086 300.821L185.851 302.871C181.889 306.521 179.055 307.581 178.303 307.511C176.403 307.361 172.553 303.631 174.839 300.311Z" fill="#AED8C7"/>
<path d="M162.506 300.461C162.12 299.161 161.165 295.291 151.332 293.941C149.188 293.641 146.587 296.331 145.592 297.061C144.596 297.791 138.481 302.831 138.359 304.231C138.217 306.681 141.406 305.501 141.782 305.361C143.306 304.851 148.487 299.711 149.594 300.561C149.594 300.561 150.438 300.701 152.368 302.921C152.633 303.235 152.918 303.532 153.221 303.811C153.877 304.212 154.555 304.576 155.253 304.901C157.417 305.981 159.611 306.111 160.332 305.621C161.48 304.851 163.075 302.401 162.496 300.461" fill="#AED8C7"/>
<path d="M183.057 351.401C182.204 334.011 165.279 345.551 158.971 347.891C157.107 348.688 155.587 350.104 154.674 351.891C154.674 351.891 147.39 364.081 151.392 377.211C155.395 390.341 168.967 381.311 171.192 379.991C173.417 378.671 183.921 368.811 183.057 351.431M164.233 366.771C157.274 362.511 165.798 351.471 165.798 351.471C165.798 351.471 169.597 357.551 170.054 360.111C170.44 362.271 169.221 369.821 164.233 366.771Z" fill="black"/>
<path d="M120.672 339.311C120.672 339.311 119.738 345.841 127.997 348.961C136.256 352.081 141 342.471 140.706 342.441C140.411 342.411 122.775 336.521 120.672 339.311Z" fill="white"/>
<path d="M143.601 343.121C143.601 343.121 144.566 353.211 151.982 354.681C160.82 356.441 164.365 346.681 164.07 346.681C163.776 346.681 153.14 345.331 143.601 343.151" fill="white"/>
<path d="M167.89 346.631C167.89 346.631 171.151 355.731 178.679 355.041C187.659 354.211 188.97 344.511 188.675 344.571C181.79 345.632 174.851 346.32 167.89 346.631Z" fill="white"/>
<path d="M191.662 343.721C191.662 343.721 194.923 352.051 203.375 350.821C212.294 349.521 212.253 340.101 211.969 340.161C205.102 340.751 198.303 341.943 191.651 343.721" fill="white"/>
<path d="M141.091 380.201C141.091 380.201 141.345 370.201 136.926 368.101C134.8 367.067 132.409 366.679 130.058 366.985C127.706 367.291 125.5 368.278 123.72 369.821C125.427 371.941 129.551 376.451 141.122 380.201" fill="white"/>
<path d="M159.073 384.761C159.489 383.262 159.737 381.723 159.814 380.171C159.94 378.827 159.68 377.476 159.062 376.271C158.369 375.534 157.5 374.981 156.533 374.661C148.467 372.051 144.2 380.721 144.2 380.721C146.628 382.501 146.791 382.841 159.073 384.721" fill="white"/>
<path d="M163.938 387.551C166.443 387.626 168.943 387.288 171.334 386.551C172.868 386.011 174.686 385.661 175.093 384.991C175.499 384.321 174.514 383.281 175.814 384.191C188.35 393.001 192.271 403.291 197.066 407.511C203.974 413.611 208.484 412.981 208.484 412.981C212.954 412.831 219.72 412.981 222.9 410.891C226.283 408.631 230.773 401.031 230.763 397.101C230.763 392.551 224.779 379.741 224.779 379.741C224.779 379.741 210.415 354.911 183.128 361.481C176.017 363.181 173.234 367.711 166.051 371.661C157.518 376.361 162.465 387.121 162.465 387.121L163.938 387.551Z" fill="#E61A65"/>
<path d="M207.245 413.881C205.061 413.691 201.475 412.611 196.782 408.471C194.983 406.743 193.322 404.88 191.814 402.901C187.852 398.011 184.703 390.601 175.702 385.331L175.052 386.401C175.052 386.761 174.036 386.081 173.955 386.481C173.62 390.621 164.7 389.771 163.116 390.131L162.902 390.251L161.186 390.111L160.881 389.411C159.828 387.385 159.291 385.137 159.316 382.861C159.316 381.331 159.377 377.861 160.159 375.861C161.419 372.701 161.947 372.791 165.574 371.321C167.067 370.721 169.688 368.061 171.202 367.861C172.218 365.081 176.068 361.861 182.377 360.391C186.579 359.346 190.926 358.982 195.248 359.311C214.966 360.951 225.439 378.431 225.876 379.131L225.937 379.251C226.191 379.791 232.032 392.351 232.032 397.101C232.032 401.281 227.492 409.271 223.641 411.851C220.533 413.931 213.676 414.341 209.744 414.011C209.375 413.983 209.008 413.93 208.647 413.851C208.181 413.9 207.711 413.9 207.245 413.851M171.547 378.751C171.547 378.751 172.899 379.541 173.945 380.171L176.129 382.351C184.337 387.091 189.742 396.421 193.826 401.451C195.273 403.303 196.833 405.066 198.499 406.731C201.75 409.98 206.073 411.98 210.689 412.371C216.612 412.801 220.492 411.461 223.387 409.751C226.659 407.821 229.483 402.751 229.483 397.101C229.483 392.461 225.297 383.841 223.641 380.281C222.961 379.281 212.873 363.181 195.024 361.691C190.99 361.385 186.932 361.723 183.006 362.691C177.836 363.931 175.398 365.871 174.077 367.691C174.473 367.691 177.013 367.381 177.419 367.421C180.553 367.955 183.579 368.985 186.379 370.471C189.183 371.725 191.812 373.329 194.201 375.241C195.593 376.241 196.142 377.121 195.979 377.961C195.867 378.521 194.963 379.351 192.627 376.961C190.511 375.343 188.242 373.93 185.851 372.741C185.323 372.511 182.295 371.291 181.787 371.061C178.567 369.411 174.199 370.311 172.462 370.061C170.798 370.193 169.165 370.584 167.626 371.221C164.66 372.421 162.212 375.361 161.998 378.071C161.811 380.354 161.811 382.648 161.998 384.931C165.188 385.221 174.3 385.051 174.3 385.051C174.727 383.311 170.552 381.221 170.115 380.561C169.099 379.071 170.907 378.561 171.476 378.721" fill="black"/>
<path d="M42.3284 189.311C41.5875 179.637 40.014 170.043 37.6249 160.631C36.3856 155.721 35.2783 149.221 36.2535 144.001L23.8497 145.841L27.6897 137.641L18.6484 131.741L32.7284 129.441L29.4066 112.311C29.4066 112.311 36.1926 116.031 38.9253 116.571C39.3621 116.651 39.4941 113.311 40.1443 112.061C40.9188 110.581 41.5449 109.03 42.0135 107.431C42.877 104.561 39.9208 103.731 40.6624 96.511C41.2876 93.5642 42.0984 90.6586 43.0903 87.811C43.2834 87.201 44.3195 86.471 44.5329 85.811C44.6413 85.3645 44.631 84.898 44.5029 84.4566C44.3747 84.0152 44.1332 83.6137 43.8015 83.291C42.4199 81.701 43.5577 64.291 50.2218 58.491C52.1519 56.801 55.4433 55.731 58.816 53.861C60.5633 52.861 62.524 51.861 64.7386 50.921C86.2649 41.301 155.365 6.71101 179.614 2.51101C200.845 -1.15899 243.613 1.14102 257.693 4.36102C265.475 6.15102 300.746 56.681 304.596 66.601C308.447 76.521 300.685 120.291 299.883 130.841C299.08 141.391 295.982 146.221 311.271 148.131C313.688 148.431 322.902 145.671 330.999 144.601C337.917 143.691 340.721 145.411 343.037 149.761C344.053 151.761 344.053 157.091 341.777 159.481C334.991 166.691 318.646 179.771 305.44 183.311C305.44 183.311 294.935 171.051 284.645 172.861C263.992 176.481 216.195 182.221 203.436 179.411C190.676 176.601 178.913 147.211 165.239 150.121C151.565 153.031 115.786 154.431 57.1297 186.121L42.3284 189.311Z" fill="black"/>
<path d="M132.03 130.441L115.532 142.681C115.532 142.681 169.881 128.441 170.308 127.441C170.795 126.281 172.512 10.9111 172.512 10.9111L54.0311 61.7111L49.3987 79.7111L117.554 59.4811L48.6164 89.0611L47.0621 102.011L83.7656 93.2511L46.2901 109.771C46.0057 113.041 44.045 117.281 50.7193 116.281C53.0307 116.643 55.153 117.754 56.7488 119.439C58.3447 121.124 59.3225 123.286 59.5269 125.581C60.2583 133.221 61.2234 133.651 65.5002 133.201C70.6406 132.651 74.511 144.571 70.6812 149.721C68.6494 152.451 61.386 155.001 48.2609 158.531C47.5092 158.741 43.3136 159.121 42.4501 160.121C42.4501 160.121 41.9625 163.911 44.4818 163.981C49.1447 164.091 63.2755 158.431 67.5015 157.271C71.0063 156.271 101.157 144.421 132.081 130.441" fill="#AED8C7"/>
<path d="M67.6134 146.211C67.4029 146.857 67.0413 147.444 66.5579 147.927C66.0744 148.41 65.4825 148.774 64.8299 148.991L43.7606 155.381C42.3587 155.861 38.5188 155.151 38.1023 153.911L37.8076 147.441C38.3257 144.661 39.5651 143.181 40.9771 142.701L64.3422 137.771C65.9575 137.771 66.4248 140.601 66.8413 141.841L67.6134 146.211Z" fill="#AED8C7"/>
<path d="M176.647 118.191L179.695 10.9409C179.695 10.9409 211.542 6.19094 243.481 9.66094C255.895 11.0009 260.01 19.3409 264.815 23.2109C269.62 27.0809 276.497 37.4309 276.497 37.4309L292.446 59.3809C292.446 59.3809 298.247 68.7509 295.748 88.9409C293.31 108.631 293.716 107.041 292.203 119.871C292.203 119.871 290.851 130.531 289.856 132.871C289.399 133.921 287.469 133.361 286.656 133.061C282.979 131.721 255.022 118.061 232.358 115.811C222.382 114.811 199.545 120.921 176.21 126.811L176.647 118.191Z" fill="#AED8C7"/>
<path d="M199.951 45.9409L196.182 103.601L231.494 106.631L232.54 90.6109L215.484 88.6809L217.566 56.8809L199.951 45.9409Z" fill="black"/>
<path d="M261.188 60.1111L279.911 51.6211L274.648 107.981L239.662 107.211L240.688 90.8211L259.075 90.7811L261.188 60.1111Z" fill="black"/>
<path d="M235.883 80.3109L238.646 86.3109L242.222 79.7909L249.78 81.7009L246.732 75.1609L252.929 71.4109L246.915 69.1209L251.578 61.2409L243.075 63.2409L239.54 57.7109L235.344 63.7609C235.344 63.7609 229.95 60.8409 229.33 60.8409C228.71 60.8409 230.691 67.8409 230.691 67.8409L224.962 71.1609L232.215 74.8109L228.324 82.2009L235.883 80.3109Z" fill="black"/>
<path d="M292.111 166.221C292.111 166.221 317.508 161.581 320.342 161.221C323.176 160.861 318.889 165.631 317.112 167.941C315.334 170.251 312.337 173.941 310.61 174.181C304.728 175.101 297.333 171.681 294.966 171.001C292.599 170.321 286.483 168.001 292.111 166.201" fill="#AED8C7"/>
<path d="M297.759 152.731C297.14 152.731 261.777 158.031 254.869 159.431C250.318 160.351 233.038 163.521 220.868 162.761C214.539 162.371 210.984 160.381 208.352 157.611C202.907 151.851 196.04 143.201 196.04 143.201C196.04 143.201 187.222 135.011 191.083 134.201C199.21 132.451 215.128 129.751 221.559 128.121C232.439 125.341 236.919 128.681 249.831 133.351C262.742 138.021 296.672 149.311 296.672 149.311C297.222 149.602 297.682 150.034 298.003 150.561C298.45 151.511 298.267 152.761 297.759 152.761" fill="#AED8C7"/>
<path d="M218.43 172.871C201.363 172.811 197.706 165.871 197.096 164.351L178.049 133.981C177.911 133.763 177.826 133.516 177.8 133.261C177.773 133.006 177.807 132.747 177.897 132.506C177.987 132.265 178.131 132.048 178.32 131.87C178.508 131.692 178.735 131.559 178.983 131.481C179.369 131.361 188.655 128.481 213.899 123.141C237.376 118.141 245.899 123.141 247.565 124.371L287.875 139.501C288.301 139.66 288.645 139.979 288.831 140.388C289.018 140.797 289.032 141.262 288.87 141.681C288.709 142.1 288.385 142.439 287.969 142.622C287.554 142.806 287.082 142.82 286.656 142.661L246.102 127.431C245.89 127.359 245.696 127.243 245.533 127.091C245.533 127.091 238.514 121.391 214.62 126.441C196.152 130.341 186.176 132.961 182.112 134.081L200.083 162.731C200.172 162.866 200.237 163.015 200.276 163.171C200.276 163.171 203.324 171.471 226.455 169.051C241.866 167.441 275.573 161.191 300.187 156.631C316.624 153.631 328.5 151.381 330.958 151.261C333.416 151.141 335.113 151.721 336.18 153.001C337.846 155.001 337.135 157.811 336.708 159.491L336.606 159.921C335.895 162.921 325.797 171.081 324.182 171.791C323.977 171.882 323.757 171.932 323.532 171.938C323.308 171.945 323.084 171.908 322.874 171.829C322.45 171.671 322.108 171.353 321.922 170.946C321.736 170.539 321.722 170.076 321.883 169.658C322.044 169.241 322.367 168.904 322.78 168.721C324.335 168.021 332.614 160.831 333.274 159.101L333.386 158.671C333.64 157.671 334.107 155.831 333.528 155.141C333.183 154.903 332.793 154.736 332.382 154.648C331.97 154.561 331.545 154.555 331.131 154.631C328.906 154.741 315.893 157.151 300.817 159.951C276.152 164.521 242.364 170.781 226.811 172.411C224.017 172.708 221.209 172.861 218.399 172.871" fill="#AED8C7"/>
<circle cx="212.051" cy="251.519" r="11.1875" fill="black"/>
</svg>
