<svg xmlns="http://www.w3.org/2000/svg" width="85" height="52" viewBox="0 0 85 52" fill="none">
  <g clip-path="url(#clip0_13_1872)">
    <path d="M8.7356 14.7821V14.8374L8.75393 14.9479H8.80893V14.9019L8.79059 14.7821H8.7356Z" fill="black"/>
    <path d="M0.98083 5.31421V4.79844C1.10743 5.31333 1.16295 5.84324 1.14582 6.37333V6.65884V6.86149C1.06261 6.60278 1.02237 6.33207 1.02668 6.06022V6.00496H0.98083V6.10626V6.19834L1.08167 7.11934V7.21148C1.08167 7.21148 1.13665 7.34039 1.14582 7.58906V10.2876C1.06602 10.6166 1.01996 10.9531 1.00833 11.2915V11.4481V11.881C1.00244 12.3853 1.02387 12.8894 1.0725 13.3914H1.1L1.045 11.7981V11.3283C1.045 11.052 1.04499 10.9139 1.11832 10.9139L1.16417 11.485V11.5494L1.21916 12.0651L1.28334 14.7545C1.19463 14.3178 1.14553 13.8739 1.13667 13.4283H1.08167C1.1117 14.079 1.17594 14.7277 1.27416 15.3716L1.21916 15.9058V16.1636V16.311H1.28334V17.3794V17.4991L1.34748 18.7241L1.42997 20.1424L1.36583 20.2621C1.41166 20.2621 1.45748 20.4463 1.49415 20.8147C1.43915 20.8147 1.41165 20.8147 1.41165 20.8792L1.46665 21.0818H1.30166V21.1279C1.34411 21.1287 1.38512 21.1435 1.41828 21.1702C1.45144 21.1968 1.4749 21.2338 1.485 21.2752L1.28334 21.2108V21.2752C1.47008 21.469 1.63598 21.682 1.7783 21.9107H1.73248C1.71114 21.8814 1.68367 21.8571 1.652 21.8396C1.62033 21.8221 1.58521 21.8118 1.54914 21.8094H1.41165V21.8554C1.54915 21.966 1.61331 22.0397 1.61331 22.0581C1.53998 22.0581 1.49415 22.0581 1.49415 22.0581C1.64082 22.1419 1.77634 22.244 1.89747 22.362V22.5094L2.15413 22.7949V22.8594C2.15413 22.9699 2.2733 23.0896 2.50245 23.2093H2.41996V23.2922L3.48327 23.4396L4.35406 24.0106L4.43658 23.9277H5.23405H5.51821H5.94903H6.11402H6.25151H6.4165H6.59066H7.10398L9.26726 23.8724C9.26726 23.9461 9.40474 23.9922 9.56974 23.9922H9.78058H9.94556H9.83557V23.9369H9.99141H10.7064L10.8072 24.0014C10.4292 24.1269 10.0317 24.1831 9.63391 24.1672H9.55142H9.37725V24.5264H9.44142C11.128 24.4066 12.118 24.3237 12.4205 24.2777L13.2913 24.2132H13.3371L13.823 24.1672H14.0429H14.7763C14.8313 24.2593 14.8679 24.3053 14.9046 24.3053C15.3354 24.3053 15.5554 24.2593 15.5554 24.204L15.1429 24.2777H15.0696L15.7754 24.1764C15.7754 24.1764 15.7296 24.2316 15.6471 24.2316V24.2961H15.7479H15.8579L15.9129 24.3974C16.1188 24.2717 16.3511 24.1961 16.5912 24.1764V24.2961L16.9029 24.1948L16.9487 24.2501C17.0994 24.1996 17.2574 24.1747 17.4162 24.1764V24.1304H17.2695C17.2695 24.0751 17.3887 24.029 17.6362 23.983C17.74 23.8999 17.8702 23.8574 18.0028 23.8633C18.122 23.8633 18.177 23.8633 18.1862 23.7988L18.1403 23.7343C18.1403 23.7343 18.1862 23.6698 18.2687 23.6606C18.3145 23.6606 18.3511 23.7159 18.3878 23.8172L18.3145 23.6146L18.4153 23.5501C18.4153 23.4304 18.4978 23.3659 18.5345 23.3659H18.5986C18.5986 23.4304 18.5986 23.4764 18.7178 23.4949C18.837 23.5133 18.8186 23.3659 18.8186 23.2186L19.0295 23.0159V22.9607H18.837V22.7764C18.9195 22.7764 18.9836 22.6199 19.0203 22.3068V22.187V21.9015V21.7173C19.0936 21.7173 19.1395 21.6436 19.1395 21.5055C19.1438 21.1975 19.1254 20.8897 19.0845 20.5844L19.0295 19.5345V19.4056V18.9727L19.0845 17.4438C19.0127 17.0181 18.9851 16.5859 19.002 16.1544V15.3163V15.0953V15.0124V14.4414V14.2111V13.4743V12.7375V12.5165V12.4704V11.8625V11.5955V11.1994V10.5087L19.1211 9.85476V9.79028C19.1827 9.73199 19.2216 9.65368 19.2311 9.56925V9.35744V9.21004V9.10875V8.98901V8.06801V7.92983V7.37725V7.30355C19.1761 7.30355 19.1486 7.16539 19.1486 6.88909V6.76935V5.9497V5.66419V5.5168C19.1486 5.46154 19.1486 5.43394 19.2678 5.43394V5.35103L19.1853 5.21291V5.04708V4.91818V4.67871V4.61423C19.2403 4.61423 19.2678 4.61423 19.2678 4.61423L19.1395 4.32872L19.1853 4.24581L18.8828 3.7577C18.9414 3.83309 19.0269 3.8826 19.1211 3.89582V3.81296C19.0355 3.71102 18.973 3.5916 18.9378 3.46297H18.9928C18.9928 3.32482 18.8461 3.1222 18.562 2.88274V2.42223C18.7636 2.42223 18.8737 2.35776 18.8737 2.3025L18.6903 2.16432C18.342 1.99854 18.177 1.88805 18.177 1.85121L17.8562 1.74992H18.0028V1.69466C18.0028 1.69466 17.9203 1.61175 17.737 1.50123C16.5454 1.13282 15.8121 0.884165 15.5462 0.764434H15.4913C15.8134 0.939155 16.1549 1.07517 16.5087 1.16968C16.2795 1.16968 16.1604 1.16967 16.1604 1.1052L14.1254 0.87495C14.1254 0.87495 14.2904 0.810446 14.6113 0.782816C14.6113 0.709135 14.5196 0.681519 14.3271 0.681519H13.6488L12.8788 0.782816H12.7138H12.3472H11.6689C11.3626 0.773824 11.0561 0.789267 10.7522 0.828911C9.83557 0.884171 8.18562 0.948597 5.71069 1.01307H5.17906V0.745996L4.0149 0.902551C2.60328 0.994652 1.89747 1.09597 1.89747 1.19728C1.89747 1.29859 2.00747 1.27096 2.2183 1.31701L1.81498 1.41831V1.50123C1.81498 1.50123 1.8883 1.50123 2.03496 1.5657L1.81498 1.86965L1.76915 1.82356V1.62096L1.71416 1.5657C1.60312 1.94744 1.45577 2.31756 1.27416 2.67092V2.62483C1.22833 2.62483 1.18249 2.8459 1.1275 3.28798V3.50901C1.07861 3.81602 1.04195 4.16601 1.0175 4.55897V4.44846C1.0175 4.44846 1.01749 4.3932 0.971654 4.3932C0.925822 4.3932 0.907493 4.46688 0.88916 4.62345V4.82605V5.18525V5.33259L0.98083 5.31421ZM1.39333 17.0478H1.34748V16.9833L1.41165 16.9281L1.39333 17.0478ZM1.47582 11.9455V12.1112V11.8073V11.9455ZM1.47582 11.7428H1.42997V11.6876H1.47582V11.7428ZM1.57664 9.81794V9.86398V9.67977V9.81794ZM1.57664 9.58769V9.63373V9.44951V9.58769ZM1.57664 9.34822V8.7311H1.64081V8.86928V8.92453L1.57664 9.34822ZM2.06246 21.5055C1.97996 21.5055 1.93414 21.3028 1.90664 20.8884H1.8608V21.1094C1.8608 21.0173 1.79665 20.9713 1.74166 20.9713V20.7687L1.78748 20.7134V20.8331H1.89747V20.6858L1.85165 20.2806C1.90665 20.2806 1.93413 20.4003 1.95247 20.6489V20.7318C1.95247 20.7318 1.99831 20.7318 1.99831 20.8147L2.14498 21.6344C2.11765 21.6233 2.09428 21.6042 2.07793 21.5795C2.06158 21.5549 2.053 21.5259 2.05331 21.4963M1.73248 16.6241V16.3663V16.6149V16.6241ZM1.73248 16.9557V17.1583V17.0294V16.9465V16.9557ZM1.73248 17.5359V17.7017V17.803H1.68666V17.5175L1.73248 17.5359ZM1.85165 15.215V15.3163H1.8058V15.2703L1.85165 15.215ZM1.85165 15.0492V14.8098H1.90664V14.994L1.85165 15.0492ZM2.02581 12.8756V12.6362L2.14498 12.8204V13.9256H2.09913L2.01664 13.0598V12.8756H2.02581ZM2.02581 6.01418V5.82997V5.88523V6.01418ZM2.08996 18.8438V18.7241V19.3411C2.04412 19.3411 2.02581 19.1754 2.02581 18.853M2.08996 19.4608V19.6543C2.08996 19.6543 2.03498 19.599 2.02581 19.4701V19.4056L2.08996 19.4608ZM2.02581 18.4569V18.4017V18.6319V18.4569ZM2.08996 10.4718H2.04414V10.3705L2.08996 10.4258V10.4718ZM1.97082 16.9189C1.97082 16.9189 1.97081 16.8544 2.02581 16.8544V17.1583V17.3886V17.4438V17.6925V17.8951H2.01664L1.97082 16.9189ZM8.61645 15.8966C8.61425 15.5885 8.59281 15.2809 8.55228 14.9755V14.8374V14.5887V14.2571H8.5981V14.1558L8.53393 13.2348V12.9954V12.7006V12.581V12.5165V12.3323L8.48811 12.277C8.48811 12.1757 8.4881 12.1296 8.42394 12.1296C8.40586 11.4462 8.44264 10.7625 8.53393 10.085V9.97449C8.49 9.94797 8.45402 9.91 8.42981 9.8646C8.40561 9.8192 8.39408 9.76803 8.39644 9.71659V9.65211V9.52321V9.27452V9.07187V8.45481L8.46061 8.39955H8.64395L11.1097 8.18774H11.403H11.5405L11.4947 8.69428L11.5405 9.61529V9.70737V9.86398V10.1126V10.6008V10.7113V10.785V10.8955L11.4947 11.227V12.5533C11.3764 13.4054 11.303 14.2631 11.2747 15.1229V15.7492V16.5689V16.6241H11.183C10.8128 16.687 10.4395 16.7301 10.0647 16.7531H9.78058H9.69808H9.45057H9.34975L8.87311 16.6886V16.1544V16.0715V15.9518V15.8229V15.6018V15.2703V15.169V15.0861H8.81812V15.2334V15.3163V15.4176V15.6847V16.0347V16.3847V16.4584C8.81812 16.4584 8.81809 16.5413 8.76309 16.6978H8.6806C8.57977 16.6978 8.53393 16.6149 8.53393 16.4491V16.3755L8.5981 15.5466C8.5981 15.5466 8.65312 15.6479 8.69895 15.8597M2.28247 23.2278L2.2183 23.1633L2.2733 23.2093L2.28247 23.2278ZM2.12663 8.59299V9.02583V9.14557V9.21004V9.27452V9.51399V9.64295V10.0942V10.2784H2.06246V10.1587V9.79028V9.65211V9.2653V9.18244V9.11796L2.10831 8.63902L2.12663 8.59299ZM2.06246 5.46154V5.58128V5.62732H2.01664V5.31421H2.07163L2.06246 5.46154ZM1.92497 4.80766H2.01664V4.89052V5.17603L1.96164 5.12999L1.92497 4.80766ZM1.87915 6.64968H1.92497V6.72332H1.87915V6.64968ZM1.87915 12.7099V13.5756L1.75998 15.4176V15.4821C1.75998 15.6387 1.75999 15.7216 1.71416 15.7216V14.9848V14.4137V14.3585C1.70337 13.7888 1.73707 13.219 1.81498 12.6546L1.87915 12.7099ZM1.69581 11.7336V11.8533V11.8994V11.7336ZM1.5125 5.6181V5.66419V5.71945V5.76549V5.6181ZM1.5125 5.82997V6.10626V6.45624H1.4575V6.051L1.5125 5.82997ZM1.44832 7.28517V7.13778C1.49416 7.13778 1.53083 7.31277 1.56749 7.65354L1.5125 7.87457L1.59499 8.32586C1.59499 8.32586 1.59498 8.39958 1.49415 8.42721L1.44832 8.52851V7.6075V7.28517ZM1.44832 11.5402L1.50332 11.485V11.6046L1.44832 11.6507V11.5402ZM1.36583 3.30642H1.42083V3.65641V3.80374H1.36583V3.30642ZM1.36583 15.5005V15.6203H1.31998V15.5466L1.36583 15.5005ZM1.31998 13.0783V13.3914V13.2625V13.0967V13.0783ZM1.19167 4.06165C1.19167 3.95113 1.19167 3.88665 1.25584 3.87744C1.25584 4.19058 1.25583 4.34716 1.19167 4.34716V4.06165ZM1.19167 11.3652H1.23749V11.4297L1.30166 12.3507V12.4704V12.581V12.5349V12.4796C1.30402 12.2118 1.28872 11.9441 1.25584 11.6783V11.3744L1.19167 11.3652Z" fill="black"/>
    <path d="M14.4003 0.46972V0.414459H14.2812L14.2354 0.46972L14.3362 0.48814L14.4003 0.46972Z" fill="black"/>
    <path d="M8.79048 14.4045L8.75382 14.2387H8.73548L8.72632 14.3032L8.73548 14.4045H8.79048Z" fill="black"/>
    <path d="M67.3364 24.7014C67.5662 24.686 67.7936 24.6458 68.0147 24.5816L67.2356 24.7198H67.3364V24.7014Z" fill="black"/>
    <path d="M84.5143 17.011H83.9918H83.7626V16.7807V16.5781V16.4584C83.7626 16.4584 83.6801 16.6333 83.6251 16.9741H83.5793V16.6702H83.5243L83.396 16.7346H83.3043L83.2126 16.8728C83.2126 16.9557 83.2126 17.0018 83.1576 17.0018H83.011C83.011 16.9557 83.011 16.9373 83.0751 16.9373V16.8728H83.011H81.5077H81.2235H81.086H80.9761H80.3527L76.9245 17.011C76.9245 16.9373 76.8695 16.9004 76.7687 16.8728C75.467 16.8728 74.4679 16.9557 73.7896 17.011C73.6828 17.0175 73.576 16.9986 73.4779 16.9557H73.4321L73.5513 16.2741C73.8996 16.2741 74.6054 16.2189 75.6412 16.1084H75.8979H76.0262V16.1544C75.6962 16.1544 75.5312 16.2097 75.5312 16.2558H75.6412H76.3103H76.5762L77.8595 16.1913H77.9053L79.0419 16.1452L80.7194 16.2097H80.9394C80.9394 16.2097 80.9944 16.2097 81.0036 16.3294C81.0036 16.3294 81.0036 16.3294 81.0036 16.2281H81.0494V16.311C81.0494 16.311 81.0494 16.3847 81.0952 16.3847V16.3018C81.0952 16.2465 81.0952 16.2189 81.0952 16.2189H81.1502V16.1728C81.1044 16.1728 81.0769 16.1728 81.0769 16.1176C81.0769 16.0163 81.1502 15.961 81.2327 15.961C81.2496 15.9627 81.2666 15.9604 81.2825 15.9544C81.2983 15.9484 81.3126 15.9387 81.3241 15.9262C81.3356 15.9138 81.3442 15.8988 81.349 15.8824C81.3538 15.8661 81.3548 15.8489 81.3519 15.8321C81.5443 15.8321 81.6452 15.786 81.6452 15.7308C81.6452 15.6755 81.526 15.6571 81.2969 15.6479H81.3702L81.4252 15.7031H81.086C81.086 15.7031 81.1502 15.6387 81.2785 15.611H81.5719L81.2785 15.3808V15.2795L81.4068 13.7138V12.8572H81.4619C81.4619 12.8572 81.3794 12.6086 81.3244 12.1205V11.6323V11.5126V11.4481V11.3283L81.3794 10.5271L81.3152 10.4073V9.79028C81.3641 9.79028 81.4099 10.0113 81.4527 10.4534V10.389C81.4304 10.1402 81.3874 9.8937 81.3244 9.65211C81.4278 9.62706 81.5247 9.57997 81.6085 9.51399C81.7735 9.51399 81.856 9.514 81.856 9.46795C81.7552 9.46795 81.691 9.40345 81.6727 9.2653C81.6544 9.12715 81.5169 9.26531 81.5169 9.21926C81.3519 9.21926 81.2694 9.20084 81.2694 9.164V9.11796H81.5169C81.5854 9.14047 81.6592 9.14047 81.7277 9.11796L81.7644 8.86928H81.6452H81.4344H81.3794V8.068H81.4985H81.8285H81.9477H82.5343C82.8002 8.068 82.9285 8.16928 82.9285 8.38111H82.9926C82.9926 8.30743 83.011 8.2706 83.0476 8.2706L83.0018 8.15086V8.068H83.121H83.2493C83.4079 8.05386 83.5674 8.05386 83.726 8.068V8.69428V8.79558H83.8085V8.64824V8.13248C83.8755 8.12673 83.9393 8.10107 83.9918 8.05878L84.4318 8.16008H84.7434V8.11404C84.7434 8.11404 84.6243 8.03115 84.3676 7.99431C84.2986 7.92989 84.2176 7.87984 84.1293 7.84697C83.9276 7.84697 83.8268 7.79172 83.8268 7.6812L83.8818 7.62594C84.0115 7.60845 84.1362 7.56456 84.2484 7.49698V7.37725C84.3316 7.37327 84.4129 7.35127 84.4868 7.31277L84.4318 7.23908H84.2026H83.9643V7.09174V6.94435V6.87071V6.64968L84.1018 5.67341L84.1751 4.50372V4.43002V4.21821V1.50123H84.2393L84.6609 1.44597V1.38149H84.4868H84.3584H84.2851H84.1934H84.1384V1.31701V0.994685V0.930207C84.0957 0.930207 84.059 1.03153 84.0285 1.23416C84.0314 1.26027 84.0284 1.28671 84.0198 1.31151C84.0111 1.3363 83.997 1.35881 83.9785 1.37739C83.96 1.39597 83.9376 1.41013 83.913 1.41882C83.8883 1.4275 83.862 1.43046 83.836 1.42753V1.34467L83.9001 1.22494C83.8593 1.12841 83.7885 1.04767 83.6985 0.994685V0.580221H83.5976C83.5976 0.276289 83.5335 0.128937 83.4785 0.128937C83.4143 0.128937 83.3501 0.377615 83.2585 0.884168C82.6998 0.87928 82.1422 0.833083 81.5902 0.745995H81.7735H82.1402H82.7635H82.8093C82.8093 0.690735 82.7085 0.663118 82.5068 0.644698L79.2986 0.782815L78.6845 0.709175H78.0978H77.832H77.777L75.9987 0.847292H75.5495H74.5046H74.0554H73.9821L74.0371 0.920988H73.7896V0.580221H73.9087C73.9546 0.580221 73.9729 0.580221 73.9729 0.580221H73.8721H73.7896H73.7163V0.644698L72.433 0.773652H72.213H70.2514H70.0314H69.6189C69.6189 0.773652 69.5639 0.718385 69.4539 0.709175H68.9314L68.7481 0.773652H68.6839H68.5006H68.3814H68.3172H67.2998H67.0981L67.0339 0.718394L66.8873 0.838129V0.368407C66.8873 0.285517 66.8873 0.248654 66.8231 0.230234H66.7681C66.7681 0.230234 66.6948 0.396004 66.6581 0.736776H66.704V0.598659H66.7498V0.764433V0.819691H66.6856V0.764433L66.594 0.838129H66.5298L66.484 0.782815L66.5298 0.598659C66.5298 0.506558 66.484 0.460485 66.4656 0.460485V0.313149V0.193414H66.4106C66.3556 0.193414 66.3281 0.349956 66.3281 0.681518C66.2273 0.681518 66.1815 0.764444 66.1815 0.948646C66.1815 1.13285 66.099 1.16046 65.934 1.16046C65.934 1.16046 66.0073 1.23416 66.1173 1.23416H66.1632V1.31701C66.1254 1.31632 66.0881 1.32631 66.0557 1.34585C66.0233 1.36539 65.997 1.3937 65.9798 1.42753L66.1632 1.48279V2.34854V2.78144C66.099 2.78144 66.0165 3.13143 65.934 3.82218C65.989 3.44457 66.0348 3.25116 66.0715 3.25116V3.41693C66.0172 3.77339 65.9958 4.13409 66.0073 4.4945V4.60501L66.0531 4.25503V4.02477V4.11691V4.2919V5.01026L66.099 5.09317C66.102 5.1222 66.0943 5.15128 66.0774 5.17502C66.0605 5.19876 66.0356 5.21549 66.0073 5.22207V4.92734V4.82605C66.0073 4.77999 66.0073 4.76157 66.0073 4.76157V5.07473V5.19447V5.44316V6.41942V6.98122V7.02726L66.0623 7.5062V8.13248V8.243C66.0179 8.5695 65.9995 8.89904 66.0073 9.22848C66.0091 8.98823 65.9938 8.74812 65.9615 8.51007V8.86928C66.044 9.79028 66.1173 11.1166 66.1815 12.8665V13.7875V14.073L66.0898 15.4361H66.1448C66.1448 15.2795 66.1906 15.2058 66.2273 15.2058L66.1448 17.2228V18.2635V18.0149V17.7754V17.6557V17.5268V17.5912V17.6925V17.7754V18.3925V18.5767V18.9635V19.074V19.1661V20.0871C66.0901 20.3166 66.0594 20.5512 66.0531 20.7871V20.8608V21.091L66.1173 23.0804H66.0531H65.7965V23.1633H65.8515L65.7965 23.2093H65.6132H65.5032V23.2646C65.7434 23.3015 65.974 23.386 66.1815 23.5133C66.1815 23.5133 66.1815 23.5777 66.0715 23.6146H65.879V23.6606V23.7159C66.1173 23.7159 66.2456 23.7988 66.2456 23.8356H65.9431V23.8909H66.0623H66.209C66.209 23.8909 66.2823 23.9554 66.2823 24.0751V24.4159H66.3281H66.374V24.0935H66.4381H66.5115V24.2961H66.5573C66.5573 24.1119 66.6215 24.0106 66.6581 24.0106H66.759V24.0935H66.6581L66.7223 24.1764V24.3238C66.7223 24.3238 66.7773 24.2777 66.7865 24.1764C67.1878 24.0522 67.6042 23.9841 68.0239 23.9738H68.0881H68.4548V24.2777L68.5006 24.2224C69.2908 24.0415 70.1019 23.9703 70.9113 24.0106H71.1497V24.0751C71.6828 24.0712 72.2153 24.0374 72.7446 23.9738H73.7804H73.8446H73.9087C74.2296 23.9738 74.7429 23.9738 75.4395 24.0751L76.5578 24.0198C76.6373 24.0869 76.7382 24.1229 76.842 24.1211H77.5753H77.8686H78.3545H78.9411H79.2253L80.8752 24.204H81.141V24.1396L80.7102 24.0843H80.5727C80.9007 24.0394 81.2318 24.021 81.5627 24.0291H81.8102L81.856 24.0843L81.911 24.0291H82.736H83.0201H83.2585H83.3868H83.4601V24.1027V24.2869V24.4343C83.5885 24.3975 83.6526 24.2501 83.6526 23.9922H83.7351L83.6893 23.8541V23.7343H83.946C83.946 23.8264 83.946 23.8724 83.946 23.8724C83.946 23.8724 83.9918 23.8172 84.0101 23.7159C84.1673 23.6668 84.3315 23.645 84.4959 23.6514V23.5133C84.3406 23.5056 84.1881 23.4681 84.0468 23.4028V23.2001V23.1172C84.2508 23.0948 84.453 23.0579 84.6518 23.0067L84.5968 22.9514L84.1384 23.0528H84.0743V22.8686V22.6567V22.5831V22.3989V22.2699V22.0213V21.4686H84.1201V21.3673V21.2844V21.1831V21.1003V20.1793C84.1143 19.2971 84.1817 18.416 84.3218 17.5451C84.4318 17.5451 84.4776 17.4899 84.4776 17.4623C84.3309 17.4623 84.2484 17.3978 84.2484 17.3794V17.3241H84.3951H84.4501H84.5693C84.6793 17.3241 84.7343 17.3241 84.7343 17.2596C84.7343 17.1952 84.8259 17.1399 85.0001 17.1399V17.1583C84.9543 17.0931 84.8918 17.0415 84.8192 17.009C84.7465 16.9766 84.6665 16.9645 84.5876 16.9741M80.8477 8.93375C80.7652 8.93375 80.701 8.86925 80.6461 8.7311C80.6461 8.78636 80.6461 8.81402 80.6461 8.81402H80.5636C80.2761 8.8636 79.9841 8.88212 79.6927 8.86928H79.4453C79.2439 8.82159 79.0379 8.79685 78.8311 8.79558H78.7303V8.7311L79.1794 8.61137V8.56533C78.9407 8.60772 78.7072 8.67568 78.4828 8.76798H78.4278C78.2263 8.78245 78.0239 8.75741 77.832 8.69428C77.832 8.74033 77.7403 8.76798 77.5478 8.76798H76.6312H76.512C75.6687 8.84166 74.6787 8.90614 73.4779 8.95219V8.85084V8.69428V8.09561H73.8446L74.9079 8.02197H74.9904H75.0637C75.0637 8.10486 75.0637 8.1417 75.1095 8.1417L75.3479 7.94827H76.3653V8.068L77.5111 7.90223H77.6486C77.6945 7.90223 77.722 7.9575 77.7495 8.08644V7.94827H78.8494C78.8494 8.00353 79.0144 8.0496 79.3353 8.08644H80.9485C80.9318 8.3638 80.8857 8.63854 80.811 8.90609" fill="black"/>
    <path d="M66.0071 17.3978V17.361H65.9705V17.4991H65.9888L66.0071 17.4807L65.9888 17.4439V17.4254L66.0071 17.3978Z" fill="black"/>
    <path d="M84.3857 17.8767L84.4316 17.932H84.4499L84.4316 17.8123L84.3857 17.8583V17.8767Z" fill="black"/>
    <path d="M77.7036 8.39957V8.4272H77.8044V8.39957L77.7586 8.36273L77.7036 8.39957Z" fill="black"/>
    <path d="M65.7873 6.86148V6.39177L65.7507 6.29046L65.7873 6.20757V5.4155L65.7507 5.40629H65.7873L65.7507 5.28656H65.7415L65.7048 5.35103H65.7415L65.7048 5.61812V6.02337L65.7415 6.29967L65.7048 6.57597V6.75096L65.7415 6.86148H65.7873Z" fill="black"/>
    <path d="M80.3342 24.5909V24.6369H80.3892V24.5356L80.3342 24.5909Z" fill="black"/>
    <path d="M84.9816 23.0436L84.9175 23.0988V23.1173L84.9358 23.1541L85 23.1173V23.0436H84.9816Z" fill="black"/>
    <path d="M84.8167 23.1541H84.7342C84.6708 23.1675 84.6052 23.1675 84.5417 23.1541H84.6517C84.7617 23.1541 84.8167 23.1541 84.8167 23.0896" fill="black"/>
    <path d="M73.3496 0.571032L73.2305 0.552612V0.598663H73.3496V0.571032Z" fill="black"/>
    <path d="M65.7415 7.74565L65.7506 7.84697H65.8056V7.70881L65.7873 7.46014L65.8056 7.39567L65.7873 7.32199H65.7415V7.47856L65.7506 7.50619L65.7415 7.52461V7.74565Z" fill="black"/>
    <path d="M65.7873 6.95358H65.7415V7.13778L65.8056 7.04568L65.7873 6.95358Z" fill="black"/>
    <path d="M65.8238 8.21536L65.8055 7.94827H65.7871L65.7505 7.95748L65.7871 7.99432V8.01274L65.7505 8.03116V8.39957L65.8238 8.48246V8.21536Z" fill="black"/>
    <path d="M65.8696 3.87744L65.8238 3.83139L65.7505 4.51294L65.8055 4.5682L65.8696 3.87744Z" fill="black"/>
    <path d="M65.7506 5.13922V5.18527H65.7873L65.8056 4.73398V4.68793H65.7506L65.7415 4.79845V4.95502L65.7506 5.1208L65.7415 5.13922H65.7506Z" fill="black"/>
    <path d="M84.9175 49.5778V49.5962L84.9358 49.633L85 49.5962V49.5317H84.9816L84.9175 49.5778Z" fill="black"/>
    <path d="M84.5142 49.6606H84.615C84.725 49.6606 84.78 49.6606 84.78 49.5962H84.6975C84.637 49.6088 84.5746 49.6088 84.5142 49.5962" fill="black"/>
    <path d="M80.3342 51.1158H80.3892V51.0145L80.3342 51.0698V51.1158Z" fill="black"/>
    <path d="M67.2356 51.1343H67.3181C67.5478 51.1189 67.7752 51.0787 67.9964 51.0145L67.2356 51.1343Z" fill="black"/>
    <path d="M65.8238 34.6943L65.8055 34.4272H65.7871L65.7505 34.4456L65.7871 34.4733V34.4917L65.7505 34.5101V34.8785L65.8238 34.9614V34.6943Z" fill="black"/>
    <path d="M65.7873 33.4417H65.7415V33.6259L65.8056 33.5246L65.7873 33.4417Z" fill="black"/>
    <path d="M65.7415 34.2246L65.7506 34.3259H65.8056V34.1878L65.7873 33.9391L65.8056 33.8746L65.7873 33.8009H65.7415V33.9575L65.7506 33.9943L65.7415 34.0036V34.2246Z" fill="black"/>
    <path d="M65.7506 31.6181V31.6642H65.7873L65.8056 31.2129V31.1668H65.7506L65.7415 31.2774V31.4339L65.7506 31.5997L65.7415 31.6181H65.7506Z" fill="black"/>
    <path d="M65.8238 30.3103L65.7505 31.0011L65.8055 31.0471L65.8696 30.3564L65.8238 30.3103Z" fill="black"/>
    <path d="M73.2305 27.0315V27.0868H73.3496V27.0499L73.2305 27.0315Z" fill="black"/>
    <path d="M77.7036 34.8785V34.9061H77.8044V34.8785L77.7586 34.8417L77.7036 34.8785Z" fill="black"/>
    <path d="M65.7048 33.2391L65.7415 33.3404H65.7873V32.8707L65.7507 32.7694L65.7873 32.6865V31.9037L65.7507 31.8852H65.7873L65.7507 31.7655H65.7415L65.7048 31.83H65.7415L65.7048 32.0971V32.5023L65.7415 32.7878L65.7048 33.0549V33.2391Z" fill="black"/>
    <path d="M66.0071 43.8767V43.8399H65.9705V43.978H65.9888L66.0071 43.9596L65.9888 43.9228V43.9043L66.0071 43.8767Z" fill="black"/>
    <path d="M84.5143 43.4899H83.9918H83.7626V43.2597V43.057V42.9373C83.7626 42.9373 83.6801 43.1123 83.6251 43.4623H83.5793V43.1583H83.5243L83.396 43.2228H83.3043L83.2126 43.361C83.2126 43.4531 83.2126 43.4899 83.1576 43.4899H83.011C83.0093 43.4811 83.0099 43.472 83.0125 43.4634C83.0152 43.4548 83.0198 43.447 83.0262 43.4407C83.0325 43.4343 83.0402 43.4296 83.0488 43.427C83.0573 43.4243 83.0664 43.4238 83.0751 43.4254V43.361H83.011H81.5077H81.2235H81.086H80.9761H80.3527L76.9245 43.4991C76.9245 43.4346 76.8695 43.3886 76.7687 43.361C75.467 43.361 74.4679 43.4438 73.7896 43.4991C73.6828 43.5056 73.576 43.4867 73.4779 43.4438H73.4321L73.5513 42.7623C73.8996 42.7623 74.6054 42.707 75.6412 42.5965H75.8979H76.0262V42.6426C75.6962 42.6426 75.5312 42.6979 75.5312 42.7439H75.6412H76.3103H76.5762L77.8595 42.6794H77.9053L79.0419 42.6333L80.7194 42.6978H80.9394C80.9394 42.6978 80.9944 42.6978 81.0036 42.8176C81.0036 42.8176 81.0036 42.8176 81.0036 42.7163H81.0494V42.7992C81.0494 42.7992 81.0494 42.8728 81.0952 42.8728V42.79C81.0952 42.7347 81.0952 42.707 81.0952 42.707H81.1502V42.661C81.1044 42.661 81.0769 42.661 81.0769 42.6057C81.0769 42.5044 81.1502 42.4492 81.2327 42.4492C81.3152 42.4492 81.3519 42.4492 81.3519 42.3202C81.5443 42.3202 81.6452 42.2742 81.6452 42.2189C81.6452 42.1637 81.526 42.1452 81.2969 42.136H81.3702L81.4252 42.1913H81.086C81.086 42.1913 81.1502 42.1268 81.2785 42.0992H81.5719L81.2785 41.8597V41.7584L81.4069 40.1927V39.2625H81.4619C81.4619 39.2625 81.3794 39.0138 81.3244 38.5257V38.1112V37.9915V37.927V37.8073L81.3794 37.006L81.3152 36.8863V36.2692C81.361 36.2692 81.4069 36.4902 81.4527 36.9415V36.8679C81.4304 36.6191 81.3874 36.3726 81.3244 36.131C81.4292 36.1099 81.5269 36.0624 81.6085 35.9929C81.7735 35.9929 81.856 35.9929 81.856 35.9469C81.7552 35.9469 81.691 35.8824 81.6727 35.7442C81.6544 35.6061 81.5169 35.7442 81.5169 35.6982C81.3519 35.6982 81.2694 35.6798 81.2694 35.6429V35.5969H81.5169C81.5854 35.6194 81.6592 35.6194 81.7277 35.5969L81.636 35.5232H81.5169H81.306H81.251V34.7219H81.3702H81.7002H81.8193H82.406C82.6718 34.7219 82.8002 34.8324 82.8002 35.035H82.8643C82.8643 34.9614 82.8827 34.9245 82.9193 34.9245L82.8735 34.8048V34.7219H82.9926H83.121C83.2792 34.7011 83.4394 34.7011 83.5976 34.7219V35.339V35.4403H83.6801V35.293V34.6575C83.7456 34.6513 83.8085 34.6292 83.8635 34.593L84.3034 34.6943H84.6151V34.6575C84.6151 34.6575 84.496 34.5746 84.2393 34.5377C84.1678 34.4766 84.0874 34.427 84.001 34.3904C83.7993 34.3904 83.6985 34.3351 83.6985 34.2246L83.7535 34.1693C83.8831 34.1518 84.0079 34.108 84.1201 34.0404V33.9207C84.2033 33.9167 84.2845 33.8947 84.3584 33.8562L84.3034 33.7825H84.0743H83.836V33.6352V33.4878V33.4141V33.193L83.9735 32.226L84.0468 31.0563V30.9919V30.7708V28.0631H84.1109L84.5326 28.017V27.9433H84.3584H84.2301H84.1568H84.0651H84.0101V27.8789V27.5565V27.492C83.9674 27.492 83.9307 27.5933 83.9001 27.7959C83.9046 27.8228 83.9028 27.8502 83.8948 27.8762C83.8869 27.9022 83.873 27.926 83.8543 27.9456C83.8356 27.9653 83.8127 27.9804 83.7872 27.9895C83.7617 27.9987 83.7345 28.0018 83.7076 27.9986V27.9157L83.7718 27.7959C83.7289 27.7007 83.6587 27.6206 83.5701 27.5657V27.1605H83.5976C83.5976 26.8657 83.5335 26.7092 83.4785 26.7092C83.4143 26.7092 83.3501 26.9578 83.2585 27.4644C82.6996 27.4643 82.1416 27.4181 81.5902 27.3262H81.7735H82.1402H82.7635H82.8093C82.8093 27.271 82.7085 27.2433 82.5068 27.2249L79.2986 27.3631L78.6845 27.2894H78.0978H77.832H77.777L75.9987 27.4276H75.5495H74.5046H74.0554H73.9821L74.0371 27.5012H73.7896V27.4276H73.9087C73.9546 27.4276 73.9729 27.4276 73.9729 27.4276H73.8721H73.7896H73.7163V27.492L72.433 27.621H72.213H70.2514H70.0314H69.6189C69.6189 27.621 69.5639 27.5657 69.4539 27.5565H68.9314L68.7481 27.621H68.6839H68.5006H68.3814H68.3172H67.2998H67.0981L67.0339 27.5657L66.8873 27.6854V27.2157C66.8873 27.1328 66.8873 27.096 66.8231 27.0776H66.7681C66.7681 27.0776 66.6948 27.2526 66.6581 27.5841H66.704V27.446H66.7498V27.6117V27.667H66.6856V27.6117L66.594 27.6854H66.5298L66.484 27.6302L66.5298 27.446C66.5298 27.3631 66.484 27.3078 66.4656 27.3078V27.1605V27.0499L66.4106 26.9947C66.3556 26.9947 66.3281 27.1605 66.3281 27.4828C66.2273 27.4828 66.1815 27.5749 66.1815 27.7499C66.1815 27.9249 66.099 27.9709 65.934 27.9709C65.934 27.9709 66.0073 28.0354 66.1173 28.0354H66.1632V28.1183C66.1241 28.1172 66.0857 28.1281 66.0529 28.1495C66.0202 28.1709 65.9947 28.2018 65.9798 28.2381L66.1632 28.2841V29.1499V29.5919C66.099 29.5919 66.0165 29.9327 65.934 30.6234C65.989 30.2458 66.0348 30.0524 66.0715 30.0524V30.2182C66.0172 30.5747 65.9958 30.9353 66.0073 31.2958V31.4063L66.0531 31.0563V30.8261V30.9274V31.0932V31.8115L66.099 31.8944C66.102 31.9235 66.0943 31.9526 66.0774 31.9763C66.0605 32.0001 66.0356 32.0168 66.0073 32.0234V31.7287V31.6274C66.0073 31.5813 66.0073 31.5629 66.0073 31.5629V31.876V31.9957V32.2444V33.2207V33.7825V33.8377L66.0623 34.3259V34.943V35.0627C66.0179 35.3892 65.9995 35.7187 66.0073 36.0482C66.0091 35.8079 65.9938 35.5678 65.9615 35.3298V35.6337C66.044 36.5547 66.1173 37.881 66.1815 39.6309V40.5519V40.8374L66.0898 42.1821H66.1448C66.1448 42.0255 66.1906 41.9518 66.2273 41.9518L66.1448 43.9688V45.0096V44.7609V44.5214V44.4109V44.2728V44.3372V44.4385V44.5214V45.1385V45.3227V45.7095V45.82V45.9121V46.8331C66.0902 47.0658 66.0595 47.3034 66.0531 47.5423V47.6068V47.837L66.1173 49.8264H66.0531H65.7965V49.9093H65.8515L65.7965 49.9554H65.6132H65.5032V50.0106C65.7434 50.0475 65.974 50.132 66.1815 50.2593C66.1815 50.2593 66.1815 50.3238 66.0715 50.3606H65.879V50.4159C66.1173 50.4159 66.2456 50.4987 66.2456 50.5356H65.9431V50.5816H66.0623H66.209C66.209 50.5816 66.2823 50.6369 66.2823 50.7566V51.0974H66.3281H66.374V50.7751H66.4381H66.5115V50.9777H66.5573C66.5573 50.7935 66.6215 50.6921 66.6581 50.6921H66.759V50.7751H66.6581L66.7223 50.858V51.0053C66.7223 51.0053 66.7773 50.9593 66.7865 50.858C67.1878 50.7338 67.6042 50.6656 68.0239 50.6553H68.0881H68.4548V50.9593L68.5006 50.904C69.2908 50.7231 70.1019 50.6518 70.9113 50.6921H71.1497V50.7566C71.6828 50.7527 72.2153 50.7189 72.7446 50.6553H73.7804H73.8446H73.9087C74.2296 50.6553 74.7429 50.6553 75.4395 50.7566L76.5578 50.7014C76.6364 50.771 76.7372 50.8102 76.842 50.8119H77.5753H77.8686L78.3545 50.7566H78.9411H79.2253L80.8752 50.8395H81.141V50.7751L80.7102 50.7198H80.5727C80.9007 50.6749 81.2318 50.6564 81.5627 50.6645H81.8102L81.856 50.7198L81.911 50.6645H82.736H83.0201H83.2585H83.3868H83.4601V50.7382V50.9224V51.0698C83.5885 51.0329 83.6526 50.8856 83.6526 50.6277H83.7351L83.6893 50.4895V50.379H83.5976H83.7076H83.781C83.781 50.4619 83.781 50.508 83.781 50.508C83.781 50.508 83.8268 50.4527 83.8451 50.3606C84.0016 50.3081 84.166 50.2831 84.3309 50.2869V50.158C84.1753 50.1451 84.0233 50.1045 83.8818 50.0383V49.8356V49.7528C84.0858 49.7304 84.288 49.6935 84.4868 49.6422L84.4318 49.587L83.9735 49.6883H83.9093V49.5041V49.2923V49.2278V49.0436V48.9054V48.6568V48.1041H83.9551V48.0028V47.92V47.8186V47.7358V46.8147C83.9489 45.9357 84.0163 45.0576 84.1568 44.1898C84.2668 44.1898 84.3126 44.1254 84.3126 44.0978C84.1659 44.0978 84.0835 44.0333 84.0835 44.0149V43.9596H84.2301H84.2851H84.4043C84.5143 43.9596 84.5693 43.9596 84.5693 43.8952C84.5693 43.8307 84.6609 43.7754 84.8351 43.7754V43.7293C84.7893 43.6641 84.7268 43.6125 84.6541 43.58C84.5815 43.5476 84.5015 43.5356 84.4226 43.5452M80.8477 35.4127C80.7652 35.4127 80.7011 35.3482 80.6461 35.21C80.6461 35.2653 80.6461 35.293 80.6461 35.293H80.5636C80.2761 35.3425 79.9841 35.3611 79.6927 35.3482H79.4453C79.2439 35.3005 79.0379 35.2758 78.8311 35.2745H78.7303V35.21L79.1794 35.0903V35.0443C78.9407 35.0867 78.7072 35.1546 78.4828 35.2469H78.4278C78.227 35.2584 78.0257 35.2366 77.832 35.1824C77.832 35.1824 77.7403 35.2469 77.5478 35.2469H76.6312H76.512C75.6687 35.3298 74.6787 35.3851 73.4779 35.4311V35.3298V35.1732V34.5745H73.8446L74.9079 34.5009H74.9904H75.0637C75.0637 34.5838 75.0637 34.6206 75.1095 34.6206L75.4579 34.4917H76.4754V34.6114L77.6212 34.4456H77.7586C77.8045 34.4456 77.832 34.5009 77.8595 34.6298V34.4549H78.9594C78.9594 34.5101 79.1244 34.5561 79.4453 34.593H81.0586C81.0418 34.8703 80.9957 35.1451 80.921 35.4127" fill="black"/>
    <path d="M84.3857 44.3556L84.4316 44.4109H84.4499L84.4316 44.2912L84.3857 44.3464V44.3556Z" fill="black"/>
    <path d="M8.57968 35.2561V35.1548L8.56135 34.9798L8.50635 35.0351V35.0811L8.52468 35.2561H8.57968Z" fill="black"/>
    <path d="M13.4929 27.271H13.4654L13.3462 27.2894V27.3447H13.3737L13.4929 27.3263V27.271Z" fill="black"/>
    <path d="M13.9145 27.2433H13.7587L13.6487 27.271V27.3262H13.7953L13.9145 27.2894V27.2433Z" fill="black"/>
    <path d="M8.60716 35.3666L8.57966 35.2838H8.52466L8.56132 35.3666H8.60716Z" fill="black"/>
    <path d="M12.0996 36.8402V36.2047V36.26V36.8863H12.0446L11.9987 35.9653L12.0446 35.7811L12.0996 35.8364L12.1454 35.7811V35.6429H12.0996C12.0168 35.736 11.9626 35.8511 11.9437 35.9745V36.1127C11.9303 36.4037 11.9581 36.6952 12.0262 36.9784V37.0521L12.0721 37.3376H12.0996L12.1454 36.9784L12.0996 36.8402Z" fill="black"/>
    <path d="M8.67139 42.8452L8.83638 43.14C8.9647 43.2413 9.01971 43.3333 9.01971 43.3978H9.12053V43.3425L9.01971 43.2597C8.84555 42.965 8.73555 42.8083 8.69888 42.8083" fill="black"/>
    <path d="M8.62569 35.6245L8.60736 35.5048H8.56152L8.57986 35.6429H8.60736L8.62569 35.6245Z" fill="black"/>
    <path d="M8.68069 42.3571L8.62569 40.8927L8.60736 40.7361H8.56152V41.1229L8.57986 41.4729L8.56152 41.4913L8.57986 41.5097V41.6571L8.60736 41.9426L8.57986 41.961L8.60736 42.0623V42.311L8.64402 42.3571H8.68069Z" fill="black"/>
    <path d="M8.88217 37.31L8.86384 37.2086H8.80884L8.8455 37.31H8.88217Z" fill="black"/>
    <path d="M19.2861 44.0517V44.0886L19.3503 44.1162V44.0886L19.3045 44.0517H19.2861Z" fill="black"/>
    <path d="M11.467 51.0606L11.5679 51.079L11.6779 51.0606V51.0053L11.467 51.0421V51.0606Z" fill="black"/>
    <path d="M10.7063 51.0606V51.079L10.9905 51.1066L11.1096 51.079V51.0421H10.9446L10.7063 51.0606Z" fill="black"/>
    <path d="M19.3502 32.6773C19.3924 32.4806 19.4701 32.2933 19.5794 32.1247C19.4367 32.2817 19.3525 32.4834 19.3411 32.6957" fill="black"/>
    <path d="M16.3345 27.2433V27.3262H16.3986L16.8661 27.3447V27.2894L16.3528 27.2433H16.3345Z" fill="black"/>
    <path d="M4.39975 27.1052L4.58308 27.1605V27.0868H4.46391L4.09726 27.0591L4.02393 27.0868V27.1052L4.26225 27.1236H4.28059L4.31725 27.1052V27.1236L4.39975 27.1052Z" fill="black"/>
    <path d="M9.87212 51.0053H9.78962L9.73462 51.0606L10.3671 51.1066H10.3854L10.4038 51.079V51.1066L10.5046 51.079H10.5229L10.5596 51.1066L10.6238 51.079V51.0421L10.5596 51.0606L9.87212 51.0053Z" fill="black"/>
    <path d="M8.60718 35.8363L8.62551 35.9561H8.68051V35.9192L8.64384 35.8087H8.60718V35.8363Z" fill="black"/>
    <path d="M8.68066 36.26L8.68983 36.3705H8.74483L8.68983 36.2232H8.68066V36.26Z" fill="black"/>
    <path d="M19.1027 28.3486L19.0202 28.413H18.9194V28.2933C18.9836 28.2933 19.0202 28.2933 19.0202 28.2289L18.9011 28.0631H18.9836H19.2219C19.2219 28.0078 19.1394 27.971 18.9561 27.9341H19.2769H19.396V27.8789H19.3136H18.6536H18.5253H18.4703L18.3327 27.7315V27.667C18.3327 27.667 18.2503 27.6118 18.0853 27.5841H17.9478L16.9028 27.4644V27.5197C17.0311 27.5197 17.0953 27.5197 17.0953 27.5841C16.4445 27.5841 16.1145 27.5197 16.1145 27.4644L15.8303 27.4184H15.647H15.482L15.7112 27.4736H15.0054V27.3999H15.4545H15.0512H14.8495C14.6144 27.388 14.3788 27.388 14.1437 27.3999H13.0162C12.6313 27.3999 12.3196 27.3999 12.0996 27.3999H12.0354C12.0354 27.4736 12.0904 27.5197 12.1179 27.5197L14.1804 27.446H13.9787H14.0887H14.8495V27.5012H14.4279L14.2262 27.5473H13.2362H13.1812H13.0162C12.8975 27.5982 12.7695 27.6233 12.6404 27.621C12.4153 27.6222 12.1908 27.5975 11.9713 27.5473C11.9713 27.4921 11.9254 27.4644 11.8338 27.4644C11.8338 27.4644 11.8338 27.4644 11.9346 27.4644V27.4092H11.733H11.623H11.2196H10.9813V27.3539H11.5038H11.5496H10.9813C10.8952 27.3481 10.8093 27.3672 10.7338 27.4092L5.82979 27.6302H5.60981H5.44479H5.38979H5.24313H5.08731H4.89483H4.77566H4.574H4.39066H4.31734H4.25317C4.08817 27.6302 4.01483 27.5657 4.01483 27.5381L4.93147 27.492H5.15149H5.86646H6.04063L5.7473 27.4368H4.99565H4.84898H4.70231H4.519C4.41518 27.4299 4.31127 27.4489 4.2165 27.492H3.95066H3.67568H3.52902L3.3457 27.5381H3.10737H3.00652H2.84154V27.4736H3.30903H4.134H4.17982H3.89567H3.4282C3.30379 27.4527 3.17678 27.4527 3.05237 27.4736H2.85071C2.79571 27.4736 2.75905 27.3355 2.74072 27.0407V27.1236V27.446V27.5105H2.62155H2.39239H2.20905V27.271C2.20905 27.0868 2.16323 26.9947 2.10824 26.9947V27.3999C2.10824 27.3999 2.05322 27.3447 2.03489 27.2342L1.98907 27.1789C1.98907 27.096 1.98907 27.0499 1.98907 27.0499V27.271C1.91468 27.4158 1.87987 27.5779 1.88822 27.7407H1.82408C1.65908 27.8512 1.56742 27.9433 1.56742 28.017C1.56742 28.0907 1.41159 28.1275 1.0816 28.1275H1.01743C0.559112 28.1275 0.329953 28.1644 0.329953 28.2381C0.329953 28.2381 0.329957 28.238 0.44912 28.3025H0.531614H0.852444H0.916587V28.2381L1.0816 28.1552H1.44825H1.51243V28.2381H1.09993H0.733276H0.650782V28.3025H0.788272C0.912289 28.3211 1.03279 28.3583 1.14575 28.413L1.09075 28.7538H1.09993H0.980759C1.13659 28.7538 1.21909 28.8183 1.21909 28.938V29.0025C1.21909 29.0025 1.2741 28.9288 1.28327 28.7722H1.39326V28.8735C1.32825 29.1759 1.30663 29.486 1.32909 29.7945H1.41158V29.9051L1.35658 29.9604V29.9051V29.7117V29.4722V29.6748L1.41158 30.0801L1.47575 31.176V31.48L1.20074 33.193C1.20074 33.193 1.14577 33.322 1.1366 33.5799L1.23742 32.7602C1.23742 32.6036 1.28326 32.5207 1.30159 32.5207L1.09993 33.276V33.3312C1.09993 33.3312 1.09993 33.3312 1.09993 33.2575V33.451H1.15492C1.15492 33.1839 1.20075 33.0457 1.23742 33.0457V33.2023V33.6535V33.7549H1.30159L1.43908 33.6996V33.8194V34.1233L1.28327 34.2246L1.42076 34.4733L1.26491 34.6206V34.8232V35.5324C1.27139 35.7558 1.24672 35.979 1.1916 36.1955H1.14575V36.831L1.09993 38.0652V39.2625L1.14575 39.7507L1.09993 39.8703C1.09858 39.946 1.12104 40.0201 1.1641 40.0822V40.1835L1.1091 40.2388V40.4506L1.04493 40.6348L1.1641 40.7545L1.26491 41.8782V41.9426L1.31991 42.044V42.1084V42.2834V42.4123H1.27409L1.31991 42.836C1.27956 43.0734 1.25812 43.3136 1.25577 43.5544V44.4754V44.7885V44.9359V44.6228H1.20074L1.0816 45.995V46.3726L1.03575 46.9345V47.0358V47.1095V47.2568V47.4042V47.4871V47.5884V47.6897V46.7687L0.989934 46.6121C0.916603 46.6121 0.889089 46.7134 0.889089 46.8976V47.1371V47.2476V47.3213V47.4318V47.5516V47.6989V47.7726C0.896967 48.3423 0.936756 48.9112 1.00826 49.4765V49.8264H0.962436H0.788272C0.557636 49.8843 0.320022 49.9091 0.0824699 49.9001H0.0366211C0.0366211 49.9462 0.229129 50.0014 0.623284 50.0659V50.1488L0.421622 50.2225C0.421622 50.3054 0.71495 50.379 1.25577 50.4159V50.7843C1.25577 50.8764 1.30158 50.9224 1.37491 50.9224V51.3921H1.53992L1.58574 51.4382C1.56994 51.5172 1.56994 51.5986 1.58574 51.6776L1.66824 51.604V51.4935V51.3277V51.1711L1.61324 51.1158V51.0053C1.60711 50.958 1.61517 50.91 1.6364 50.8673C1.65764 50.8247 1.69107 50.7893 1.73241 50.7659L1.67741 50.7198V50.6001V50.4803C1.67741 50.3975 1.74157 50.3514 1.77823 50.3514H1.85158C1.89988 50.3457 1.94878 50.354 1.99259 50.3752C2.03641 50.3964 2.07333 50.4297 2.09906 50.4711C2.09906 50.3974 2.09907 50.3698 2.16323 50.3698H2.21823C2.28819 50.4468 2.37306 50.5085 2.46764 50.5513C2.56222 50.594 2.66452 50.6169 2.76822 50.6185C2.95105 50.6264 3.12838 50.6837 3.28153 50.7843L5.94896 50.6185H6.02228L7.42473 50.554H7.84638C7.92888 50.554 7.97473 50.554 7.9839 50.4896H8.43304C8.7428 50.6559 9.09028 50.7384 9.44135 50.729V50.6738C9.06553 50.6738 8.88219 50.6093 8.88219 50.5633L11.8063 50.6461H11.9713H12.2096H12.0904V50.7198H12.1546L12.3929 50.6646H12.5579H12.5121L13.4287 50.6001L14.7579 50.5172H15.1062L15.6653 50.6001H15.9495C15.9495 50.6645 15.9495 50.7106 16.032 50.7198C16.3987 50.5292 16.7958 50.4045 17.2053 50.3514L17.0495 50.8211H17.1044H17.1686C17.2969 50.4803 17.4069 50.3146 17.5078 50.3146H17.6728V50.5356C17.7186 50.5356 17.7461 50.4619 17.7736 50.3053C17.8011 50.1488 18.0028 50.2133 18.4794 50.158V50.1028H18.3786L18.4244 49.7528C18.4244 49.6975 18.5253 49.5962 18.7269 49.4396C18.7269 49.3843 18.6536 49.3475 18.5161 49.3383V49.283C18.7888 48.8696 18.9874 48.4114 19.1027 47.9291C19.1082 47.8832 19.0998 47.8366 19.0785 47.7956C19.0573 47.7545 19.0242 47.7208 18.9836 47.6989V47.5331L18.8644 47.616C18.9426 47.147 18.9886 46.6731 19.0019 46.1977V45.8938L19.0477 45.8385L19.0019 45.774V44.5583V44.4385V43.6649V42.7439V41.9795V41.8045V41.3532V40.4322V40.3493C18.9609 39.9608 18.9425 39.5702 18.9469 39.1796V39.0599L18.9927 39.1059V38.8388H18.9377V39.2625V38.9954H19.0202C19.017 38.1599 19.0783 37.3254 19.2036 36.4995C19.2036 36.3982 19.2036 36.3429 19.1394 36.3337V34.7956V33.2207L19.2036 32.8523V32.7694C19.2036 32.8339 19.2036 32.8707 19.1394 32.8707V31.3787C19.1944 31.3787 19.2494 31.5905 19.3044 32.0142C19.3044 32.0142 19.3777 31.9221 19.4052 31.7471C19.4462 31.6513 19.465 31.5473 19.4602 31.4432V31.1945L19.506 31.1116L19.4602 30.9274V30.5406L19.5611 30.2735H19.506V30.3656H19.4235L19.3594 29.8314H19.4235C19.4785 30.0709 19.5152 30.1814 19.5427 30.1814C19.5342 29.9663 19.4571 29.7596 19.3227 29.5919L19.1027 28.3486ZM1.32909 28.413H1.21909L1.29241 28.3486L1.32909 28.413ZM1.09993 49.9922V50.0383V49.8909V49.9922ZM1.09993 47.9015L1.05411 47.9568V47.5516H1.09993V47.9015ZM1.09993 47.4871V47.0174L1.14575 46.9713L1.09993 47.4871ZM1.09993 46.9161C1.09993 46.9161 1.04492 46.8608 1.03575 46.7318H1.0816L1.09993 46.9161ZM11.9804 43.8583C11.7409 43.7718 11.4914 43.7161 11.238 43.6925H11.1188C11.3571 43.6925 11.4671 43.6925 11.4671 43.757H11.238L10.9538 43.6925C10.7911 43.6393 10.6207 43.6144 10.4497 43.6188H10.3763H10.2755H10.2113H10.2571V43.5636H10.028L9.74383 43.6188L8.50636 43.7202L8.58889 43.6649H8.49722V42.0808V41.4085V41.1229V40.9756C8.49722 40.865 8.49722 40.8006 8.56139 40.7913L8.63471 40.8466V40.6808L8.52471 39.2625C8.48518 39.1792 8.46631 39.0876 8.46972 38.9954V38.5533V38.4428H8.43304V38.5257C8.43304 38.1665 8.43304 37.5034 8.54304 36.5179V36.039V35.8732C8.50184 35.6324 8.4743 35.3895 8.46054 35.1456V34.9798C8.46054 34.9798 8.50636 34.9798 8.50636 35.0535C8.50636 35.1272 8.56139 35.0074 8.56139 34.9338H8.62553H9.46885H9.75301H10.7613C10.7613 34.9338 10.8346 34.989 10.9996 34.989H11.9713V35.0903V35.1732V35.2285V35.5785H12.0996V35.3022L12.1546 35.7535V39.0322C12.1122 39.0698 12.0794 39.117 12.0586 39.1698C12.0379 39.2226 12.03 39.2797 12.0354 39.3362V39.4835V39.9164V41.7584C12.0354 42.4768 12.0354 43.186 12.1179 43.8767L11.9804 43.8583ZM1.8974 29.9604V30.0709H1.94325V30.255L1.8974 30.3103V30.2366H1.79658C1.76028 29.9426 1.80137 29.6441 1.91575 29.3709V29.8314L1.8974 29.9604ZM1.8974 30.605V30.4209V30.559V30.605ZM1.8974 32.2997H2.01657V32.3826H1.96157L1.8974 32.2997ZM1.8974 32.2352V31.8944L1.95239 31.8484V32.2444L1.8974 32.2352ZM1.75073 28.9564H1.69574V28.8827H1.75073V28.9564ZM1.75073 40.8282L1.82408 40.5795V39.9256V39.8612V39.7138V39.4098C1.82408 39.4559 1.82407 39.4743 1.8699 39.4743C1.91573 39.4743 1.86991 39.327 1.93407 39.3085V39.7598V39.8427V40.2112V40.4414V41.0308L1.80573 41.215H1.75073V40.8282ZM2.17241 41.7032H2.2274V41.8873H2.17241V41.7032ZM2.17241 41.9979V42.0532L2.11738 42.0992V42.0255L2.17241 41.9979ZM2.07156 43.2689V42.9833L2.11738 42.9373V43.2228L2.07156 43.2689ZM2.07156 42.8728V42.7347H2.11738V42.8636L2.07156 42.8728ZM2.07156 42.5689V42.1821V42.3202L2.01657 42.6058L2.07156 42.5689ZM1.8424 28.9012V28.4959H1.88822L1.94325 28.5512V28.6525C1.953 28.7446 1.94423 28.8377 1.91746 28.9263C1.89069 29.0149 1.84646 29.0972 1.78741 29.1683C1.79455 29.0996 1.82347 29.035 1.8699 28.9841M1.76908 28.0631V28.1828H1.69574V28.0631H1.76908ZM1.66824 27.1973V27.3079L1.62242 27.3631L1.66824 27.1973ZM1.66824 32.4839V32.4286V32.5668V32.4839ZM1.66824 32.8799V32.9997H1.61324L1.66824 32.8799ZM1.50325 33.2483V33.5339L1.34741 33.5891C1.34741 33.4233 1.40241 33.322 1.52157 33.2852M1.52157 32.751V32.6036V32.4839H1.56742V32.8155L1.52157 32.751ZM1.52157 28.6065V28.7077H1.36576L1.52157 28.6065ZM1.34741 29.3525V28.892V28.8367L1.50325 28.7538V29.2512L1.34741 29.3525ZM1.24659 33.0365V32.8155V32.5575V32.18V32.0602L1.30159 31.4247L1.45743 31.5813C1.36577 31.5813 1.29242 32.1615 1.23742 33.2207L1.24659 33.0365ZM1.34741 33.8562L1.50325 33.7549V33.7365L1.34741 33.8562ZM1.34741 46.5661V46.6213V46.4003V46.5661ZM1.50325 39.5296L1.34741 39.5757V39.5296L1.50325 39.4283V39.5296ZM1.50325 39.0138V39.373L1.36576 39.2993V38.6362C1.36576 38.452 1.42991 38.3507 1.54907 38.3138L1.50325 39.0138ZM1.50325 38.0928V38.2494V37.9455L1.32909 37.881V37.2087L1.46658 37.0337C1.49898 37.2222 1.51434 37.4134 1.51243 37.6047L1.50325 38.0928ZM1.50325 49.3383V49.2554V49.3659V49.3383ZM1.66824 50.1396H1.61324V49.9554L1.65906 49.7712C1.65906 49.7712 1.59492 49.7712 1.59492 49.8725C1.61337 49.7202 1.65351 49.5713 1.71409 49.4304L1.64992 49.2646V49.1817L1.69574 49.062V48.9238V48.4726V48.1226L1.75073 48.2423V48.8778L1.66824 50.1396ZM1.66824 43.6925H1.61324V43.4715V43.5912L1.66824 43.6925ZM1.73241 42.3387C1.76545 42.7091 1.73758 43.0825 1.64992 43.4438V43.3241V43.2412V43.14V42.965V42.7531V42.6886C1.64992 42.2465 1.7049 42.0163 1.75073 42.0163V42.2558V42.3202L1.73241 42.3387Z" fill="black"/>
    <path d="M40.7996 51.4283L40.8637 51.4373L40.8087 51.3922H40.7996V51.4283Z" fill="black"/>
    <path d="M40.7263 30.2458H40.7446V30.1722L40.7263 30.0524H40.6988L40.6804 30.0708L40.7263 30.2458Z" fill="black"/>
    <path d="M28.1317 51.0421C28.1317 51.0421 28.1959 51.0422 28.3242 51.0882H28.205H28.04V51.1343H28.095L28.1317 51.0421Z" fill="black"/>
    <path d="M23.4385 51.429L23.4201 51.4382L23.4018 51.429H23.356V51.475H23.521L23.466 51.429H23.4385Z" fill="black"/>
    <path d="M40.7447 30.4024H40.7813L40.7996 30.3656L40.7813 30.2458H40.7447L40.7263 30.2827L40.7447 30.4024Z" fill="black"/>
    <path d="M22.1826 35.1824L22.2193 35.2377V35.2008L22.1826 35.1548V35.1824Z" fill="black"/>
    <path d="M22.2193 33.1102H22.2009V33.2299H22.2193V33.1102Z" fill="black"/>
    <path d="M40.6255 31.8208L40.6805 31.876L40.6988 31.7563H40.6805L40.6255 31.8023V31.8208Z" fill="black"/>
    <path d="M40.8454 31.7747H40.7446C40.7446 31.8484 40.7446 31.8945 40.8088 31.9037H40.8638L40.8454 31.7747Z" fill="black"/>
    <path d="M40.8089 38.4152C40.8089 38.4152 40.8089 38.3507 40.7539 38.3507L40.8089 38.4152Z" fill="black"/>
    <path d="M24.4651 51.4382L24.5018 51.475L24.5843 51.4382V51.3922L24.4651 51.429V51.4382Z" fill="black"/>
    <path d="M31.074 43.3978L31.1381 43.4162V43.3978H31.1931V43.3425L31.074 43.3794V43.3978Z" fill="black"/>
    <path d="M24.731 51.2448L24.8685 51.1895V51.1619H24.731V51.2448Z" fill="black"/>
    <path d="M22.1553 34.5285L22.1828 34.6114H22.2194V34.4456H22.1828L22.1553 34.5285Z" fill="black"/>
    <path d="M24.4192 51.429H24.3367V51.4471H24.4192V51.429Z" fill="black"/>
    <path d="M40.6622 51.1895H40.6072L40.6255 51.2076L40.6622 51.1895Z" fill="black"/>
    <path d="M23.7686 51.254V51.2724H23.8694V51.254L23.8327 51.2448L23.7686 51.254Z" fill="black"/>
    <path d="M33.1548 47.1279H33.1365V47.2292H33.1548V47.1279Z" fill="black"/>
    <path d="M41.1755 50.2133C41.1113 50.2133 41.0471 49.9093 40.983 49.2922V48.9607V48.9054H40.8088V49.2646L40.873 49.3291C40.873 49.3291 40.818 49.3291 40.8088 49.4212V49.8172V50.1856C40.771 50.2353 40.7202 50.2735 40.6622 50.2961C40.6674 50.2718 40.6674 50.2468 40.6622 50.2225V50.1672H40.6163C40.6163 50.0014 40.5613 49.9093 40.5338 49.9093V49.762C40.5163 49.6059 40.5163 49.4483 40.5338 49.2922V49.108V48.8686V48.4725C40.5338 48.3989 40.5338 48.3528 40.4697 48.3436V48.2607V48.1226V47.6345V47.3489V47.0818V46.999V46.7318V46.649V46.5937V46.4924V46.2898V46.2068V45.9858V45.7003V45.424V45.1477V45.0648V45.0096C40.5155 45.0096 40.5521 45.0096 40.5888 44.899V44.7333C40.5888 44.5398 40.5888 44.4478 40.488 44.4478V43.8952L40.543 43.8491L40.488 43.7017V43.628V43.5083V43.3702V43.0202V42.7531V41.2887H40.5338L40.5888 41.8873V42.0255L40.6347 42.0715C40.6347 42.0715 40.6988 41.9979 40.7172 41.8413V41.6018V41.5558L40.4972 38.8757V38.3415L40.5522 37.8902V34.4456V34.1601L40.6072 33.9944L40.5522 33.6904L40.6072 33.6259V33.5246H40.5613V33.4233H40.6072V33.3404L40.653 32.6681V32.1984V32.0049H40.5888L40.5338 31.9221V31.7655V31.1669H40.5888L40.6347 31.701H40.6988V31.6365L40.5338 30.5129V30.1814V30.0156C40.5338 30.0156 40.5888 30.0156 40.5888 30.0985V29.9603H40.708V29.9051C40.5736 29.8191 40.4732 29.6888 40.4238 29.5367H40.543V29.4261C40.4442 29.381 40.3542 29.3187 40.2772 29.2419V29.0762L40.1855 29.0117L40.6897 29.0762H40.7538C40.7538 28.9933 40.6805 28.9564 40.543 28.9564H40.5888C40.4429 28.7674 40.2544 28.6159 40.0388 28.5144L39.5897 28.1275L39.8738 28.2288H39.938V28.1552L39.4247 27.9433C39.0086 27.7434 38.5799 27.5711 38.1414 27.4276L38.0955 27.4736V27.5749L37.7656 27.2894C37.7656 27.2894 37.7106 27.2894 37.6006 27.2894L37.3347 27.2065C37.1881 27.2065 37.1056 27.2618 37.1056 27.3631H36.9222H36.8489H34.484C34.3689 27.3118 34.243 27.2897 34.1173 27.2986H33.934C33.934 27.2986 33.879 27.2986 33.769 27.2986H33.4849H33.4207H33.219H33.1366L32.9257 27.2434H32.8707H32.7882H32.6874L32.4857 27.2986H32.4124H32.2841H32.0182H31.7799C31.5208 27.3234 31.2599 27.3234 31.0008 27.2986H29.5158L27.7742 27.3539H27.3526H27.0775L25.0151 27.4552C24.9861 27.4269 24.9516 27.4049 24.9137 27.3906C24.8759 27.3764 24.8355 27.3702 24.7951 27.3723H24.676H24.566V27.4276H24.6485V27.492H24.4285C24.4285 27.492 24.4926 27.492 24.4926 27.4367H24.3643C24.2725 27.4326 24.1811 27.4516 24.0985 27.492H23.9335H23.5302V27.3723H23.4752C23.4202 27.5105 23.3835 27.5749 23.3652 27.5749V27.5197V27.0223C23.3652 26.8934 23.3193 26.8381 23.246 26.8381C23.1727 26.8381 23.246 26.7184 23.191 26.7184C23.136 26.7184 23.0168 26.9855 22.9252 27.5197L22.8794 27.4184C22.8794 27.4184 22.806 27.492 22.7602 27.6394L22.5127 27.5381C22.4577 27.5381 22.4302 27.5565 22.4302 27.5934V27.6854V27.7959H22.5402H22.6227C22.6227 27.9157 22.6227 27.9802 22.5585 27.9894H22.4302C22.2835 28.0538 22.2102 28.1091 22.2102 28.1367C22.2102 28.1643 22.0269 28.1367 22.0269 28.2104C22.3477 28.2933 22.5127 28.3486 22.5127 28.3762L22.4302 28.4959L22.4944 28.5972V29.2512V29.5274V29.8314C22.4746 30.1381 22.4746 30.4457 22.4944 30.7524V31.0563V31.2774L22.5585 31.5721L22.4944 34.114V34.3535L22.4394 35.2745V35.3482V35.5785V36.0482L22.3752 36.1495L22.4302 36.2324L22.3752 36.3153V36.4165V36.785V37.227V37.4942V37.6507C22.3559 37.8223 22.3779 37.996 22.4394 38.1573V38.2217V38.323L22.5768 40.4137V40.4782C22.5851 40.2279 22.5636 39.9774 22.5127 39.7322H22.4669L22.3935 39.944L22.311 41.9058V43.4899V43.6188V43.7386V44.0057V44.2543V44.457V44.6596V44.899V45.1753C22.3569 45.1753 22.3752 45.4148 22.3752 45.8845C22.4668 46.6029 22.5402 47.4963 22.6043 48.5462C22.6043 48.9791 22.6594 49.4672 22.6777 49.9277V50.1303C22.5412 50.1701 22.4197 50.2503 22.3294 50.3606C22.3294 50.3606 22.4577 50.4343 22.7235 50.4619C22.7235 50.8303 22.7968 51.0145 22.8427 51.0145V51.0698H22.7235V51.125H23.0077V51.429H23.0627C23.0627 51.1711 23.1177 51.0421 23.2277 51.0421H23.2918L23.3927 51.2448L23.4752 51.1987V51.079C23.4752 51.079 23.4752 51.0145 23.5393 51.0145V50.9408V50.729V50.6645H23.5852C23.6642 50.7124 23.7229 50.7878 23.7501 50.8764L23.9243 50.6645H23.8693H24.3826C24.5988 50.6381 24.8173 50.6381 25.0334 50.6645V50.7382H25.0885C25.0885 50.6369 25.0885 50.5908 25.171 50.5908H25.2534H25.4826H25.6018H26.1242C26.1242 50.5908 26.1884 50.5908 26.1884 50.6369H26.0234H25.9043H25.4551H25.3726H25.1526H24.9326V50.7014H25.0701H25.2351H25.2993L25.5834 50.6553H25.7026H25.7668H25.8309H26.0509H26.1701H26.2893H26.4542L26.7017 50.6001L27.1142 50.5356H27.1784H27.5817H27.765H27.9759H28.26H28.535H28.7458C28.7458 50.5356 28.6725 50.4711 28.5625 50.4711C28.4337 50.4229 28.2965 50.401 28.1592 50.4066H28.04C27.9484 50.4066 27.8934 50.4067 27.8934 50.3238H27.8292H27.4259C27.5359 50.3238 27.5909 50.3238 27.5909 50.2501H27.4717H27.4076V50.3238H27.3067H27.2059H26.9767H26.8851H26.8392H26.7934H26.6376V50.2225H26.7476H26.8667H26.9309H26.9951H27.2242H27.7467C27.7467 50.2225 27.7467 50.2225 27.8567 50.2225H27.9575H28.1867H28.3058H28.4342V50.3053L28.1409 50.3698V50.4159H28.2417C28.6633 50.4159 28.8742 50.4158 28.8742 50.5171C28.8742 50.6185 28.8742 50.5172 28.7642 50.5816V50.6553C28.865 50.6553 28.92 50.7474 28.92 50.9316V51.2079H28.9842L29.0483 50.7566H29.1125C29.1583 50.7566 29.2042 50.8395 29.2317 51.0053C29.2317 51.0053 29.2775 50.9408 29.2958 50.8211L29.5983 50.8671L29.6442 50.8211L29.4608 50.7198C29.3325 50.7198 29.2592 50.7198 29.2592 50.7198V51.2356H29.745H29.5891H29.3875C29.3141 51.2356 29.2775 51.1251 29.2775 50.904C29.2775 50.8211 29.47 50.7658 29.855 50.7198H29.7541H29.8275V50.5816L29.8916 50.5171C29.9375 50.5171 29.9741 50.5725 29.9925 50.683L29.8916 50.8027H30.0108L30.0566 51.0421H30.1116L30.0108 50.5264C30.1575 50.5264 30.2216 50.4527 30.2216 50.4066C30.2216 50.3514 30.1575 50.3238 30.0108 50.3053C29.8641 50.2869 29.8733 50.0106 29.8091 49.3843V49.0528V48.9883L29.8733 48.7857C29.8733 48.7857 29.8733 48.6567 29.8275 48.3988V48.1778C29.745 48.1778 29.7083 47.8463 29.7083 47.1739V47.0726V46.7687V46.6029V46.4555V46.3726C29.7083 44.6319 29.8183 43.7662 29.9283 43.7662H30.0108H30.0566L30.1758 43.6465H30.075V43.5728H30.6433H30.8083H31.3491H31.4683V43.628H31.3491V43.6741L31.6332 43.628V43.6833L32.2016 43.628C32.3225 43.6888 32.4526 43.7293 32.5866 43.7478C32.5866 43.6833 32.6599 43.6465 32.8157 43.6465H33.0724V45.1845V45.249H33.1366V45.4977V45.6174V45.553V45.3503V45.203V43.8491L33.1915 43.7846L33.2374 43.8307V46.4555H33.1824V46.6858L33.2374 46.87L33.2832 47.791V48.6199V48.7304L33.384 49.6515H33.1824V49.7711V49.8909L33.3657 50.1764V50.2225H33.1824L33.0357 50.1211V50.1764L33.2832 50.4988L32.8432 50.1856V50.2685L33.2924 50.8211H33.4207C33.3465 50.8633 33.2811 50.9196 33.2282 50.9869C33.2282 50.9869 33.3565 51.0514 33.6224 51.0882C33.6224 51.4474 33.6957 51.6408 33.7415 51.6408V51.6868H33.6224H33.5765V51.7421H33.8607V52.046H33.9065H33.9615C33.9615 51.7974 34.0165 51.6684 34.1265 51.6684H34.1907L34.2915 51.8618L34.374 51.8158V51.6961C34.374 51.6961 34.374 51.6316 34.4382 51.6316V51.5671V51.3461V51.2816H34.484C34.5614 51.3313 34.6196 51.406 34.649 51.4935L34.8232 51.2816H34.7682H35.2815C35.4976 51.2552 35.7161 51.2552 35.9323 51.2816V51.3553H35.9873C35.9873 51.254 35.9873 51.2079 36.0698 51.2079H36.1523H36.3814H36.5006H37.0231C37.0689 51.2079 37.0873 51.2079 37.0873 51.254H36.9222H36.8031H36.3539H36.2714H36.0606H36.0056V51.3185H36.1431H36.3081H36.3723L36.6564 51.2724H36.7756H36.8489H36.9131H37.1331H37.2523H37.3714H37.5364L37.7839 51.2263L38.1964 51.1526L38.2697 51.2079L38.6639 51.1526L38.8472 51.2079L39.0672 51.1526L39.3514 51.2079H39.4339H39.498H39.6172H39.828C39.828 51.2079 39.7547 51.1343 39.6447 51.1343H39.5989C39.5989 51.1343 39.4705 51.0882 39.1955 51.0698H39.0855C38.9847 51.0698 38.9297 51.0698 38.9297 50.9869H38.8655H38.8197H38.4164C38.5264 50.9869 38.5814 50.9869 38.5814 50.9132H38.4714H38.3981V50.9869H38.3064H38.2056H37.9764H37.8939H37.8389H37.7931H37.6372V50.8856H38.2881H38.5905L39.5072 50.9593L39.2322 51.0237V51.0698H39.333H39.5989V51.1526L39.6538 51.0974C39.8647 51.0974 39.9655 51.0974 39.9655 51.1803C39.9655 51.2632 39.9655 51.1803 39.8555 51.254V51.3185C39.9472 51.3185 40.0022 51.4106 40.0022 51.604V51.8711H40.0663L40.1397 51.4198H40.2038C40.2497 51.4198 40.2863 51.5026 40.323 51.6684C40.323 51.6684 40.3688 51.604 40.3871 51.4842L40.6897 51.5395L40.7355 51.4842L40.5613 51.3829C40.4238 51.3829 40.3596 51.3829 40.3596 51.3829V51.3185H40.8455L40.7905 51.2632H40.6438H40.4422C40.3963 51.2632 40.3597 51.2172 40.3413 51.1343H40.4697V50.9501V50.8671C40.6301 50.8138 40.7962 50.7798 40.9646 50.7658H40.8638H40.928V50.6369L40.9921 50.5632C41.0471 50.5632 41.0746 50.6185 41.093 50.7382L40.9921 50.8488H41.1113L41.1663 51.079H41.2121L41.1113 50.5632C41.258 50.5632 41.3313 50.4896 41.3313 50.4435C41.3313 50.379 41.258 50.3514 41.1113 50.3422M30.5241 37.2087H30.5791H30.6341H30.46H30.3775H30.13H29.8733H29.9466H30.075C30.1208 37.2087 30.1391 37.2087 30.1391 37.2087H29.6808C29.6808 37.2087 29.6258 37.2087 29.6258 37.3284H29.5066V37.1718L29.4516 34.8509H30.7716C30.7716 34.8509 30.8449 34.8509 31.0099 34.8509H32.2841L33.054 34.7864V34.6575H33.1915C33.1915 34.6575 33.2832 36.435 33.3749 37.1073V37.227H32.6874C32.6874 37.227 32.6874 37.1626 32.6324 37.1626V37.2455H31.6699H31.5324H30.7991H30.6708H30.6249L30.5241 37.2087Z" fill="black"/>
    <path d="M33.0723 45.9674L33.0906 46.1424L33.1364 46.0871V46.0595L33.1089 45.6543H33.0906L33.0723 45.6727L33.0906 45.6911L33.0723 45.8569V45.9674Z" fill="black"/>
    <path d="M30.2583 37.1626L30.3041 37.2086H30.3225L30.405 37.1442H30.295L30.2583 37.1626Z" fill="black"/>
    <path d="M30.3224 44.8346L30.3591 44.7149V44.6872H30.3041L30.2949 44.7517L30.3041 44.8346H30.3224Z" fill="black"/>
    <path d="M33.2189 45.3227H33.1914V45.4332L33.2006 45.5529H33.2189L33.2556 45.4332L33.2189 45.3227Z" fill="black"/>
    <path d="M30.1941 46.8239H30.2399V46.7779L30.1941 46.7226V46.8239Z" fill="black"/>
    <path d="M30.2399 46.474H30.2124L30.1941 46.5384V46.5937H30.2124L30.2399 46.5292V46.474Z" fill="black"/>
    <path d="M30.2583 46.3266V46.2345H30.2124L30.1941 46.3082L30.2124 46.4371H30.2399L30.2583 46.3266Z" fill="black"/>
    <path d="M33.2557 45.6174H33.2007V45.6819H33.2557V45.6174Z" fill="black"/>
    <path d="M30.2949 45.8937V45.8016H30.2399L30.2124 45.9398V46.0043H30.2582L30.2949 45.8937Z" fill="black"/>
    <path d="M30.3042 45.4148H30.2583L30.24 45.5345L30.2583 45.6911H30.295L30.3042 45.4148Z" fill="black"/>
    <path d="M30.8909 43.4439L30.955 43.4162V43.3794H30.8909V43.4439Z" fill="black"/>
    <path d="M33.1548 47.8647L33.1915 47.9476H33.2006L33.219 47.9292L33.2006 47.8647H33.1548Z" fill="black"/>
    <path d="M33.1365 47.4134V47.4779L33.1548 47.5976H33.2006V47.5239L33.1915 47.4134H33.1365Z" fill="black"/>
    <path d="M33.1091 46.6029V46.7595H33.1366L33.155 46.6766L33.1366 46.6029H33.1091Z" fill="black"/>
    <path d="M63.1839 6.62203L63.2205 6.60361H63.1839V6.55756H63.1472V6.58519L63.1656 6.72334V6.74176L63.1472 6.76018L63.1656 6.79702V6.86149L63.1472 6.87991L63.1656 6.91675V6.93517L63.1472 7.0549H63.1656V7.08253H63.1839V6.62203Z" fill="black"/>
    <path d="M63.0923 8.54695V8.56537L63.1473 8.61142V8.42722H63.1106L63.0923 8.49169H63.1106V8.51011L63.0923 8.54695Z" fill="black"/>
    <path d="M63.1014 18.7885H63.0464V18.853H63.1014V18.7885Z" fill="black"/>
    <path d="M63.1656 8.23379V7.95749H63.1473L63.1106 7.97591L63.1473 8.23379H63.1656Z" fill="black"/>
    <path d="M62.3772 24.4435L62.4139 24.4619L62.4322 24.4435L62.4139 24.3698L62.3589 24.4067L62.3772 24.4435Z" fill="black"/>
    <path d="M56.3279 24.4066H56.2908V24.4435L56.3279 24.4066Z" fill="black"/>
    <path d="M63.1839 7.17462H63.1656L63.1472 7.19304L63.1656 7.21146L63.1472 7.33119V7.34961H63.1839V7.17462Z" fill="black"/>
    <path d="M63.1839 7.77328L63.1472 7.71802V7.83775L63.1839 7.7917V7.77328Z" fill="black"/>
    <path d="M55.2916 0.497332C55.058 0.404725 54.8526 0.252335 54.6958 0.0552673C54.6958 0.267099 54.8883 0.42367 55.2733 0.51577" fill="black"/>
    <path d="M63.0281 19.9398L63.0739 19.995V19.9121H63.0464L63.0281 19.9398Z" fill="black"/>
    <path d="M57.785 0.58023C57.423 0.517831 57.077 0.383176 56.7676 0.184204C56.7676 0.285515 57.0976 0.423677 57.7667 0.598668" fill="black"/>
    <path d="M55.5575 0.580231C55.5575 0.635491 55.5391 0.663146 55.5025 0.663146L55.4108 1.31702V1.39994V1.50124C55.1725 1.50124 55.035 1.42757 55.0258 1.2802L54.9616 1.34468C54.9616 1.41836 55.1175 1.4828 55.4291 1.53806C55.4291 1.60253 55.4291 1.63941 55.4291 1.63941C55.4291 1.63941 55.3191 1.79594 55.2824 2.1183V2.65249V2.9104V2.98404L55.3375 3.12222H55.2183L55.1633 3.39851V3.4998C55.1488 4.04426 55.1733 4.58908 55.2366 5.13L55.3008 7.17461V7.28518V8.06801H55.1816V8.02198V7.8838L55.1083 7.30356C55.1083 6.1431 55.0625 5.57207 54.98 5.57207C54.9302 5.61559 54.895 5.67348 54.8792 5.73784C55.0141 6.81042 55.0906 7.88961 55.1083 8.97058L55.1725 8.91532V9.17323V9.23771L55.2274 9.49556V9.6153V9.68899C55.2261 9.88427 55.2476 10.079 55.2916 10.2692V10.389L55.365 11.485V11.6231V13.2717V13.6493V13.723V13.8427V13.944V14.6808V15.1506V15.3163V15.4361L55.3191 16.0255V16.1636V16.5044V16.7439V17.0386V17.4899V17.6281V17.7478V17.9044L55.365 18.9727L55.1816 20.5661V20.6398V20.8608L55.09 21.3673L55.1633 22.3528V22.4173V22.4909V22.6844C55.1736 22.807 55.1736 22.9302 55.1633 23.0528C55.1633 23.0528 55.1633 23.0988 55.1633 23.1172L55.0716 23.062L55.0166 23.1172C55.0877 23.1854 55.1494 23.2628 55.2 23.3475V23.6054H55.2458V23.808H55.1633C55.2183 23.808 55.2549 23.808 55.2549 23.8633V24.0382H56.2174C55.8874 24.0382 55.7224 24.1027 55.7224 24.1304H55.7683L56.8407 24.0567L56.9049 24.1396V24.0843H57.1799H58.0965H58.2799H58.894H59.0498H59.1048H59.9023H59.9757H61.6348L62.0106 24.1396H62.1022L62.6064 24.2685L62.3864 24.1764H62.7439H63.0006V23.9001V23.8356L62.9456 23.6422V23.5686L62.8264 21.8923V21.7449V21.1555V20.8608V20.7687V20.6029C62.8906 20.6029 62.9456 20.474 62.9822 20.2253C62.9614 20.1984 62.9351 20.1762 62.9051 20.1603C62.875 20.1444 62.842 20.1352 62.8081 20.1332V20.0503C62.8631 20.0503 62.8906 20.0503 62.8906 19.9306V19.9214C62.8906 19.9674 62.8906 19.9951 62.8356 19.9951V19.9214C62.8906 19.9214 62.9181 19.9029 62.9181 19.8661V19.6082V19.2766V19.0188V18.9174V18.6964V18.5398V18.3188C62.9058 18.1255 62.9307 17.9317 62.9914 17.7478V17.0294V16.9373L63.1106 15.8781C63.1106 15.8781 63.1106 15.9426 63.0556 15.9426V15.2795V12.3415C63.0477 12.0828 63.0631 11.8238 63.1014 11.5678V11.3284L63.1564 10.6745V10.5916V10.5179V10.3981H63.0922V10.5179H63.0464V10.26C63.138 10.26 63.1747 9.94687 63.1747 9.33901V9.27453V9.09954C63.1747 9.22848 63.1747 9.29297 63.1106 9.29297H63.0647V8.56534C63.1098 8.45111 63.1316 8.32902 63.1289 8.20619V7.50621V6.93519C63.1289 6.73257 63.1747 6.60359 63.2847 6.54833V6.35496H63.1381C63.0889 6.16567 63.0673 5.97023 63.0739 5.77472V5.59051L63.1289 3.46298H63.0739L62.9914 4.02478V4.16296H62.9364V3.34325V3.18669V3.03008L62.8814 2.84593C62.8814 2.94724 62.8264 3.00248 62.7806 3.00248C62.7815 2.61044 62.8152 2.21915 62.8814 1.83279V1.69467V1.43676L62.8172 1.37228V1.23417H62.6889H62.7622H62.8997C62.8447 1.23417 62.8172 1.21575 62.8172 1.17891V0.976257L62.6889 1.03151C62.6156 1.1973 62.5423 1.2802 62.4964 1.2802H61.7264H61.6164C61.2543 1.2801 60.8927 1.25237 60.5348 1.19729V1.14203H60.5807H60.764H60.6815H60.7915V1.01308C61.2976 1.01269 61.802 0.954032 62.2948 0.838139H62.2398C61.6247 0.849995 61.0117 0.911549 60.4065 1.0223L59.9115 0.90256H59.7648H59.1507H58.9582H58.5365H58.1699V0.856521H58.0965C58.0965 0.902572 58.0965 0.930227 57.9957 0.939437H57.9315H57.5099C57.0395 0.907334 56.5713 0.848911 56.1074 0.764443L55.9975 0.819701L55.475 0.681528L55.5575 0.580231Z" fill="black"/>
    <path d="M55.1724 9.35743L55.1908 9.33901L55.1724 9.2377H55.1541L55.1174 9.32059H55.1541V9.35743H55.1724Z" fill="black"/>
    <path d="M63.1106 18.4017V18.3833L63.0922 18.3649L63.0464 18.4017V18.4846H63.0922L63.1106 18.4017Z" fill="black"/>
    <path d="M32.1466 9.88238L32.3849 9.7903C32.3809 9.8116 32.3809 9.83347 32.3849 9.85477L32.0732 9.95607C32.1191 10.0942 32.1741 10.2324 32.2291 10.3613C32.2291 10.3613 32.2291 10.3613 32.2291 10.4166H32.1832C32.2026 10.458 32.2179 10.5012 32.2291 10.5455H32.2932L32.4674 10.4626L32.7699 10.5455H32.7057H32.8157H32.889H33.0449L33.6865 10.6653L33.7507 10.7205C33.9849 10.7475 34.2175 10.7875 34.4473 10.8403H34.5665H34.704L34.8232 10.8955H34.979L34.3465 12.0744L34.3007 12.1941L34.1357 12.4981L33.9065 12.9493L33.8057 13.1151L33.7599 13.2072L33.659 13.2809H33.604L33.659 13.3914V13.4467L33.604 13.5664L33.7049 13.6217L33.7599 13.5111V13.4651V13.5204L33.6774 13.6401L33.879 13.7414H33.9432H33.8973L33.9615 13.8611H34.0165L34.1173 13.7967L34.2274 13.8611V13.8059L34.3007 13.6493L34.4657 13.5664H34.4015L34.5023 13.5111H34.5665L34.649 13.4283L35.2173 13.0967H35.2906C35.4844 12.9613 35.6864 12.8382 35.8956 12.7283L36.0056 12.6638L36.1156 12.581H36.2348L36.3723 12.5073L36.7298 13.5111L36.7848 13.6401L36.9039 13.9716L37.0873 14.4506V14.6348L37.1423 14.7269V14.819L37.1973 14.9387V15.0308L37.2523 15.1413V15.2058H37.3622L37.3164 15.1045L37.2339 14.8835V14.7729V14.8466V14.9019H37.2889L37.3622 15.1782L37.7014 15.0584H37.8297V15.0032V14.9387H37.9214V14.8835V14.8282L38.0497 14.5243V14.5795L38.0955 14.469V14.4045V14.2848L38.3064 13.6678L38.3614 13.6125C38.4347 13.3638 38.508 13.1427 38.5905 12.9401L38.6364 12.8204V12.6823L38.7005 12.581L39.2964 12.7743L39.3514 12.8296C39.5827 12.878 39.8096 12.9458 40.0297 13.0323H40.1488H40.2772L40.3871 13.0967L40.7996 13.2533V13.3361L40.8638 13.4467V13.5111H40.9646L40.9096 13.4006H40.9738V13.5204L41.1021 13.4651L41.2396 13.5204C41.259 13.4758 41.2743 13.4296 41.2855 13.3822H41.3771V13.3085V13.2164L41.4504 13.3638L41.5696 13.3085V13.2441L41.4779 13.0783C41.4999 12.9996 41.5275 12.9227 41.5605 12.848H41.4229L41.3771 12.7467V12.6823L41.3038 12.5901L41.0105 12.0007V11.9178C40.8891 11.7137 40.7819 11.5013 40.6896 11.2823L40.6438 11.1718L40.5613 11.0521V10.9323L40.5063 10.8034L40.9096 10.6284H40.983C41.2121 10.5087 41.423 10.4166 41.6246 10.3337L41.7438 10.2876L41.8629 10.2231H41.9913L42.3946 10.0666L42.7246 9.95607H42.7979H42.9171L43.2654 9.7903C43.2654 9.6982 43.3204 9.60611 43.3387 9.51401L43.1279 9.45875H43.1737H43.2654H43.3296L43.3846 9.21928L41.5513 8.77721H41.4229L41.0838 8.6943L40.7263 8.60222V8.55612L41.0471 7.97594H41.1113C41.2099 7.75834 41.3201 7.5462 41.4413 7.34045L41.5054 7.23909L41.5605 7.11019L41.643 7.00884L41.8813 6.64047L42.0646 6.35496L42.1746 6.16153L41.7438 5.89446L41.6796 5.71947L41.5605 5.76551H41.4963V5.84836L39.9563 6.45626L39.8372 6.51152L39.5072 6.64047L39.0764 6.81547L38.8289 6.22601V6.10627C38.7189 5.87602 38.618 5.65496 38.5447 5.45234V5.3326L38.4714 5.21292V5.08397L38.3247 4.66951V4.54055V4.46686H38.2697V4.36556L38.1964 4.16296L37.8206 4.29192L37.6006 4.21822L37.5364 4.39322H37.4356L37.4814 4.52217L36.9864 5.98654V6.12471L36.8672 6.45626L36.7481 6.81547L35.7398 6.45626H35.6115L35.2815 6.33652L34.8048 6.17075H34.7132L34.6673 6.0418L34.594 5.82998L34.1907 5.97732H34.1173H34.0623C34.0623 5.97732 34.0623 6.05099 34.0623 6.08783L33.8698 6.16153L33.9523 6.38256L33.8973 6.52996H33.9982V6.6036L33.824 6.54834L33.769 6.67729H33.824L34.0165 6.73255L34.429 7.86537L34.4932 7.99432L34.6123 8.32587L34.7957 8.80481L33.879 9.17324L33.7507 9.2285L33.4207 9.35745L32.9532 9.55083L32.7699 9.60608L32.6782 9.65212H32.6324L32.5041 9.70738H32.4216L32.3024 9.76264H32.2474C32.2513 9.79937 32.2513 9.83648 32.2474 9.87321L32.1466 9.88238Z" fill="black"/>
    <path d="M36.2255 22.6199V22.5555L36.1614 22.6015L36.0789 22.6476V22.666L36.1705 22.6383L36.2255 22.6199Z" fill="black"/>
    <path d="M36.1709 23.062H36.1431V23.0896L36.1709 23.062Z" fill="black"/>
    <path d="M36.1248 17.2689L36.2164 17.2781V17.232L36.1248 17.2504V17.2689Z" fill="black"/>
    <path d="M34.5939 17.2504H34.9055V17.232L34.5847 17.2504H34.5939Z" fill="black"/>
    <path d="M22.5953 24.1488H22.4395V24.2225L23.6953 24.1488H23.7961C23.3632 24.2539 22.9211 24.3156 22.4761 24.333L23.7777 24.1856H23.9336C23.6311 24.2501 23.4844 24.2962 23.4844 24.3238H23.6311H23.8327H24.1811V24.2777H24.1078H23.9519C24.5886 24.1707 25.2317 24.1062 25.8769 24.0843H26.4635C26.5369 24.0843 26.5735 24.0198 26.5735 23.9922H27.0593C27.0593 23.9922 26.8485 24.0659 26.436 24.1119H26.2894L26.2252 24.1764H26.4452C26.4728 24.1733 26.5008 24.1787 26.5253 24.1918C26.5499 24.205 26.5699 24.2253 26.5827 24.2501C26.5827 24.2501 26.5368 24.2501 26.4452 24.3146V24.3606H26.5093C27.9668 24.2133 28.9293 24.1488 29.3784 24.1488H29.4701H29.7176H29.7726H29.8734H30.0109H30.4967H30.735H30.9276C30.9917 24.1488 31.0284 24.1488 31.0284 24.0751C31.4384 23.9704 31.8615 23.927 32.2842 23.9462H32.7517H33.1917H33.2466H33.3108C33.4391 23.9462 33.4941 23.9462 33.4941 24.0106C33.3383 24.0106 33.265 24.0106 33.265 24.0659H33.32H33.4575H33.76C34.3558 24.0106 34.7499 23.9738 34.9241 23.9738H35.6207V23.9186H36.1707H36.3815H36.4824L36.5649 23.8725L36.4182 23.762C36.1432 23.762 35.9324 23.7067 35.8041 23.6791H35.8866H36.1616L36.2715 23.6331L36.2257 23.5409C36.5191 23.5409 36.6657 23.5409 36.6657 23.4672C36.6657 23.3935 36.5099 23.3751 36.2074 23.3751C36.2074 23.3199 36.134 23.2831 36.0332 23.2646H35.9874H35.9049V23.0712V22.8594L36.0057 21.7266C36.0057 21.4503 36.0516 20.3727 36.1432 18.4938H36.1982L36.1066 18.2544V18.0794C36.3541 18.0794 36.4732 18.0241 36.4732 18.0057L36.3999 17.9136H36.0424V17.8307C36.0374 17.8581 36.0374 17.8862 36.0424 17.9136C35.9049 17.9136 35.8316 17.9136 35.8224 17.8675L35.7216 17.9136L35.6757 17.8675H34.1358H33.9891H33.6591L33.0266 17.932H32.6325V17.8583C33.0479 17.7948 33.4683 17.7701 33.8883 17.7846H34.3375H35.8041V17.8307H35.9324L35.8866 17.7202L36.0149 17.6741V17.582C36.0149 17.4715 35.7307 17.407 35.1532 17.3702H33.8425H34.5758H35.8866C35.8866 17.3702 35.3182 17.3702 34.8049 17.3241C35.0982 17.3241 35.4282 17.3241 35.8132 17.3241H34.4291H33.9525C33.8883 17.3241 34.0349 17.3241 34.2641 17.3241C33.4941 17.3978 32.9717 17.4254 32.7058 17.4254H32.0459H32.3208C32.1832 17.4134 32.0447 17.4355 31.9175 17.4899H31.3584C31.4134 17.4899 31.4317 17.4899 31.4317 17.4254C31.3756 17.3726 31.309 17.3323 31.2364 17.3069C31.1638 17.2815 31.0867 17.2717 31.01 17.2781H30.9184H30.57C30.3365 17.2719 30.1031 17.2904 29.8734 17.3333H29.5984L30.4142 17.2689H30.7442H31.1109H31.1842C31.1842 17.3518 30.9092 17.3978 30.3684 17.407H30.0751H29.8734C29.8734 17.407 29.7451 17.3426 29.4884 17.2965V17.2413H29.0301L28.9843 16.836C28.992 16.4496 29.0318 16.0645 29.1034 15.6848V15.3993V15.2887L29.0026 14.7821V14.6716C28.9352 14.4009 28.9135 14.1207 28.9384 13.8428V13.7506C28.8974 13.5633 28.882 13.3712 28.8926 13.1796V12.9678V12.7099V12.2494H28.9384V12.3415H28.9843V12.1941H28.9384H28.8926V12.102H28.9384L28.8926 11.9546V11.8902L28.8468 9.55084L28.8926 9.45876C28.8583 9.15293 28.8399 8.84551 28.8376 8.53775V8.37198V8.18777V8.02199V5.13924C28.8376 5.13924 28.5443 4.77084 28.6085 4.62348H28.5168L28.4526 4.75243H28.3059C28.3059 4.70638 28.3059 4.6695 28.3059 4.65108C28.3059 4.63266 28.2509 4.559 28.3059 4.44848C28.3609 4.33796 28.2235 4.4485 28.1776 4.57744V4.62348L28.086 4.57744C28.0769 4.56731 28.0719 4.55415 28.0719 4.54056C28.0719 4.52697 28.0769 4.51387 28.086 4.50374H27.9485L27.6185 4.32875C27.5425 4.19415 27.4316 4.08272 27.2976 4.00636C27.4076 4.08925 27.4535 4.15373 27.4352 4.19058H27.3068L27.1235 4.08928L26.2527 3.5643V3.49982H26.3169L26.3627 3.54586H26.4543L26.7385 3.68403C26.7385 3.61956 26.546 3.45381 26.0693 3.19593H25.8494L25.7394 3.12223L24.9327 2.79068L24.7677 2.67095C24.3118 2.41875 23.8367 2.20317 23.3469 2.02623V1.96176C23.3206 1.94836 23.2992 1.9268 23.286 1.90026C23.2728 1.87372 23.2685 1.84364 23.2736 1.81442C23.2736 1.81442 23.1636 1.8144 23.0536 1.96176C23.0536 1.83282 23.0536 1.74069 22.9803 1.70385C22.9069 1.66701 22.9344 1.63019 22.9803 1.55651H22.9161C22.8651 1.58263 22.8187 1.61683 22.7786 1.65781C22.7133 1.57081 22.6429 1.48782 22.5678 1.40918V1.46443L22.467 1.36308H22.5586C22.4211 1.21572 22.2745 1.0776 22.1278 0.939453C22.027 0.939453 21.9536 1.39995 21.9261 2.25648V3.49982V3.73929L22.027 5.48001C22.027 5.48001 22.082 9.97452 22.1461 13.0783V14.119V14.2111V14.4414V14.9479C22.1461 15.9426 22.1461 16.5874 22.2011 16.8913C22.2011 16.8913 22.1828 17.0663 22.1461 17.4163V17.6281V17.7202V17.8859V17.9781V18.0333V18.2636V18.4938V18.6872V18.7517V18.853L22.0636 17.6189V18.0517C22.0499 18.3209 22.0746 18.5908 22.137 18.853L22.0636 19.774V21.0726V20.6858L22.1186 19.9766L22.1645 20.5937V22.2331C22.1645 22.6107 22.0911 22.8041 22.0453 22.8041V23.2278V23.1449C22.045 23.053 22.0638 22.9621 22.1003 22.8778V22.9883V23.2738V23.3383C22.1734 23.037 22.2072 22.7274 22.2011 22.4173C22.2011 22.5647 22.2011 22.6476 22.2745 22.6476C22.3564 22.9473 22.3904 23.2582 22.3753 23.5686C22.2378 23.6334 22.0871 23.6649 21.9353 23.6607C21.8208 23.6858 21.7158 23.7433 21.6328 23.8264C21.6349 23.8561 21.6432 23.8849 21.6571 23.9111C21.6711 23.9374 21.6903 23.9603 21.7137 23.9785C21.737 23.9968 21.7639 24.0099 21.7926 24.017C21.8213 24.0241 21.8512 24.0251 21.8803 24.0199L21.7428 24.0936H22.6594L22.5953 24.1488Z" fill="black"/>
    <path d="M44.8238 24.3882H44.9521H45.053H45.0988H45.3463H45.4379C45.8963 24.3882 46.8496 24.4527 48.3162 24.6001H48.3712V24.5264C48.2887 24.5264 48.2429 24.5264 48.2429 24.4619C48.2529 24.4369 48.271 24.416 48.2943 24.4027C48.3176 24.3893 48.3447 24.3842 48.3712 24.3882H48.5912L48.5362 24.3238H48.3895C47.9679 24.2685 47.757 24.2317 47.757 24.1948H48.2429C48.2429 24.1948 48.2429 24.2593 48.362 24.2869H48.9395C49.5877 24.3089 50.2338 24.3735 50.8736 24.4804H50.7086H50.6353V24.5264H50.9836H51.1944H51.3411C51.3411 24.5264 51.1853 24.4527 50.8828 24.3974H51.0478L52.4319 24.5264C51.9899 24.5097 51.5507 24.448 51.1211 24.3422H51.2219L52.4777 24.4159V24.3422H52.3127H53.2294L53.1011 24.2685C53.1307 24.2723 53.1608 24.2701 53.1895 24.2618C53.2182 24.2536 53.245 24.2396 53.2682 24.2206C53.2913 24.2017 53.3104 24.1782 53.3242 24.1516C53.338 24.125 53.3463 24.0958 53.3485 24.0659C53.2637 23.9803 53.155 23.9225 53.0369 23.9001C52.888 23.9051 52.7401 23.8734 52.6061 23.808C52.591 23.4976 52.625 23.1867 52.7069 22.887C52.7527 22.887 52.7802 22.8041 52.7802 22.6567C52.7732 22.9674 52.8102 23.2775 52.8902 23.5777C52.8902 23.5777 52.936 23.5778 52.936 23.5133L52.8902 23.2278V23.1172C52.934 23.1993 52.9561 23.2913 52.9544 23.3844V23.062C52.8994 23.062 52.8627 22.8686 52.8352 22.4909V20.8516L52.8811 20.2345L52.9452 20.9437V21.3397V20.0503L52.8719 19.1293C52.9342 18.8671 52.9589 18.5973 52.9452 18.328V17.8859L52.8536 19.1293V19.0188V18.9635V18.7701V18.5399V18.3096V18.2543V18.1623V17.9964V17.9044V17.6925C52.8536 17.3426 52.8536 17.1583 52.7894 17.1583C52.8429 16.5182 52.8643 15.8757 52.8536 15.2334V14.7177V14.4874V14.3953V13.3546C52.9086 10.26 52.9544 5.75628 52.9727 5.75628L53.0736 4.01557V3.7761V2.53276C53.0736 1.67623 52.9819 1.24336 52.8811 1.21573C52.7252 1.35388 52.5877 1.49205 52.4502 1.63941H52.5327L52.4319 1.74071V1.68545C52.3586 1.75913 52.2944 1.85119 52.2211 1.93408L52.0928 1.83279H52.0194C52.0194 1.90647 52.0194 1.95255 52.0194 1.98018C52.0194 2.00781 51.9186 2.10909 51.9461 2.23803C51.8269 2.12751 51.7536 2.08149 51.7169 2.0907C51.7258 2.12002 51.7231 2.15165 51.7095 2.17906C51.6958 2.20648 51.6723 2.22757 51.6436 2.23803V2.30251C51.1563 2.47812 50.6841 2.69376 50.232 2.94722L50.0578 3.07618L49.2512 3.40773L49.1412 3.48142H49.0312C48.5545 3.73931 48.3345 3.90506 48.3712 3.96953L48.6462 3.83141H48.7379H48.7837H48.8387V3.89583L47.9679 4.42081L47.7845 4.52217H47.6654C47.6654 4.52217 47.6654 4.42084 47.812 4.33795C47.6287 4.46689 47.5187 4.57739 47.5004 4.66028L47.1612 4.83528H47.0329H46.9871C46.9871 4.83528 46.9871 4.89976 46.9871 4.90897L46.8954 4.95501V4.90897C46.8496 4.81687 46.8129 4.78002 46.7671 4.78002C46.7212 4.78002 46.7671 4.95504 46.7671 4.98267C46.7671 5.0103 46.7212 5.03792 46.7671 5.08397H46.6296L46.5562 4.94579H46.4646C46.5287 5.09315 46.2537 5.42471 46.2354 5.46155V5.82076V6.27204V8.34431V8.51008V8.69429V8.86007C46.2298 9.16797 46.2084 9.47539 46.1713 9.78107L46.2171 9.87321L46.0154 11.6323V11.6968L45.9696 11.8441H46.0154V11.9363V12.0836V11.9915H46.0613V12.452V12.7099V12.9217C46.0832 13.1114 46.0832 13.3031 46.0613 13.4928V13.5848C46.0793 13.8624 46.0608 14.1411 46.0063 14.4138V14.5243L45.9054 15.0308V15.1413V15.4268C45.9819 15.8059 46.0218 16.1914 46.0246 16.5781L45.9788 16.9833H45.5113V17.0478C45.3778 17.0569 45.2471 17.0913 45.1263 17.1491H44.6313C44.0905 17.1491 43.8155 17.0939 43.8155 17.011H43.8888H44.2555H44.5855L45.4104 17.0754H45.1263C44.8966 17.0325 44.6631 17.014 44.4296 17.0202H44.0813H43.9897C43.9131 17.0143 43.8361 17.0244 43.7636 17.0497C43.691 17.0751 43.6244 17.1152 43.568 17.1676C43.568 17.2136 43.568 17.232 43.6413 17.232H43.0822C42.9528 17.1865 42.8156 17.1677 42.6788 17.1768H42.9539H42.3031C42.0006 17.1768 41.3864 17.1768 40.4698 17.057H39.1681C39.5813 17.0536 39.9944 17.0721 40.4056 17.1123H41.1481H39.8281C39.2598 17.1123 38.9665 17.2136 38.9665 17.3241V17.4163L39.0948 17.4623V17.5728H39.1498V17.5268H40.5156H40.9739C41.3939 17.5126 41.8142 17.5372 42.2297 17.6004V17.6741H42.1839H41.7897L41.1573 17.6096H40.8272H40.6898H40.7356H40.3689H39.1498L39.104 17.6557L39.0031 17.6096C38.8068 17.6686 38.6031 17.6996 38.3982 17.7018L38.3248 17.7846C38.3248 17.7846 38.444 17.7846 38.6915 17.8675V18.2912L38.609 18.5306H38.664C38.719 20.4187 38.7648 21.4963 38.7923 21.7726L38.8932 22.9054V23.3107C38.7007 23.3107 38.5998 23.3107 38.5815 23.4304C38.279 23.4304 38.1323 23.4304 38.1323 23.5225C38.1323 23.6146 38.279 23.587 38.5631 23.5962V23.6883L38.664 23.7343H38.939H39.0306C38.8931 23.7343 38.6823 23.7896 38.4073 23.8172L38.2607 23.9277L38.3432 23.9738H38.444H38.6548H39.2048V24.0291H39.9014C40.0664 24.0291 40.4606 24.029 41.0656 24.1211H41.3681H41.5056H41.5606C41.5606 24.1211 41.4872 24.0659 41.3314 24.0659C41.3314 24.0659 41.3956 24.0106 41.5147 24.0014H41.5789H41.6339H42.0739H42.5414C42.964 23.9813 43.3873 24.0247 43.7972 24.1304C43.7972 24.1856 43.7972 24.2132 43.898 24.2132H44.0905H44.338L44.8238 24.3882Z" fill="black"/>
    <path d="M46.4004 27.2434H46.4921V27.2249L46.4187 27.1881H46.4004V27.2434Z" fill="black"/>
    <path d="M63.4497 27.8789L63.5689 27.9065V27.8604H63.4497V27.8789Z" fill="black"/>
    <path d="M63.3764 50.3145H63.0739C63.0739 49.9001 63.1289 49.6054 63.1564 49.3935C63.1427 49.2989 63.1427 49.2027 63.1564 49.108C63.2572 47.266 63.303 46.0963 63.303 45.47L63.2572 44.549V43.9688V43.7109V43.6188V43.4715V43.3057C63.2702 43.3017 63.282 43.2946 63.2916 43.285C63.3012 43.2753 63.3083 43.2635 63.3122 43.2504C63.3122 43.2504 63.2664 43.1768 63.1655 43.1307C63.1635 43.1123 63.1576 43.0945 63.1481 43.0786C63.1386 43.0627 63.1258 43.0491 63.1106 43.0386V42.6794V42.9465V43.0202H63.0464H63.0006H62.9181H62.4139V42.9649H62.2306H62.0106C62.0106 42.9649 62.0106 42.9649 62.0106 43.0847H61.9556H61.9006H61.8364H61.7723H61.6989H61.6439L60.9656 43.1399H60.5165L60.434 43.186H59.3065C59.1626 43.1925 59.0206 43.2204 58.8849 43.2688H58.839H58.9215V43.2228H58.8299H58.5182H58.6007H59.2607H59.4165H59.4623H59.004H58.6557H58.4265H58.3807H58.2982H58.0782C57.7699 43.1929 57.4638 43.1438 57.1616 43.0754H56.5474H56.4466H56.3182H56.1899L55.9058 43.1767L56.0158 43.057C56.1234 42.9611 56.2437 42.8805 56.3732 42.8175L56.7949 42.4768L57.4549 42.0071C57.4549 42.0071 57.4091 42.0071 57.3907 42.0071L57.7482 41.6571L59.0223 40.4966L59.114 40.4322V40.3861H59.1598L59.224 40.3124L59.334 40.2203C59.4744 40.0854 59.6279 39.9651 59.7923 39.8611L59.9023 39.723L60.2873 39.4282L60.3331 39.3822L60.4065 39.3362L60.3331 39.3914L60.4065 39.3177L60.4798 39.2625C60.4798 39.3085 60.709 39.1796 61.0573 38.8664H61.1123L61.1856 38.7651C61.1184 38.8204 61.0726 38.8388 61.0481 38.8204L61.2956 38.6085L61.4423 38.4612C61.5297 38.4266 61.6104 38.3767 61.6806 38.3138L62.0564 37.973L62.2489 37.7797L62.3681 37.6784C62.4781 37.5771 62.5789 37.5402 62.6614 37.5678L62.7714 37.4757H62.6706C62.6706 37.4757 62.7531 37.3468 62.9639 37.1442L63.0739 37.0613L63.2022 36.9507C63.2481 36.1771 63.2847 35.6521 63.3214 35.3942C63.3075 35.2872 63.3075 35.1789 63.3214 35.0719C63.4222 33.0549 63.4681 31.6918 63.4681 31.0011L63.4222 29.9511V29.2972V28.9288V28.8827V28.6064V28.3946H63.1472L63.0739 28.5788V28.4222H62.8722V28.4959V28.6709H62.7439V28.413H62.6889L62.6064 28.2841C62.6064 28.3762 62.5606 28.4314 62.4781 28.4314L62.2764 28.2196C62.3379 28.2845 62.3737 28.3696 62.3773 28.4591H62.1939H62.2764C62.2764 28.4591 62.2214 28.3854 62.1114 28.3394C61.5627 28.3425 61.0154 28.2838 60.4798 28.1644H60.2231L59.5357 27.9986H59.2882H59.0132H58.8115H57.5557C57.1249 28.0723 56.5291 28.1367 55.7224 28.192H55.2641H55.0991H55.0166H54.9433H54.485H53.7608H52.8442H52.9267H53.2384H54.5858H54.76L54.1183 28.2472H54.0541H53.935V28.3117H54.1H54.0175C53.7375 28.2476 53.452 28.2106 53.165 28.2012H50.5984L50.4334 28.1367H49.5168L48.1418 28.0722H47.3169C47.3169 27.9617 47.3169 27.9065 47.2252 27.9065H46.7944H46.4277V27.9709H45.3827H45.2178H45.1261L45.0619 28.0262H44.9427L44.8969 27.9249V27.667V27.5473H44.8328L44.7319 28.0354C44.6586 28.0354 44.6311 28.1275 44.6311 28.1736C44.4294 28.2381 44.3286 28.2933 44.3286 28.3301C44.3286 28.3946 44.4111 28.4222 44.5119 28.4222V28.5236C44.4772 28.5009 44.4463 28.4729 44.4203 28.4407C44.3561 28.4407 44.3286 28.5051 44.3286 28.5327C44.3362 28.5563 44.3508 28.5769 44.3705 28.5918C44.3902 28.6066 44.414 28.6149 44.4386 28.6156L44.3928 28.6617C44.3928 28.6617 44.3928 28.6617 44.4936 28.7262C44.4895 28.7605 44.4773 28.7934 44.4582 28.8222C44.4391 28.851 44.4136 28.8749 44.3836 28.8919C44.3836 28.8919 44.3836 28.8919 44.4844 28.9564V29.0761V29.5827V29.8129V30.034V30.4392L44.4386 31.0932C44.4386 31.5168 44.4844 32.3641 44.5853 33.6167V33.7272C44.6776 34.0095 44.7241 34.305 44.7228 34.6022C44.6219 34.6574 44.5669 34.7035 44.5669 34.7311C44.568 34.7442 44.5718 34.7568 44.578 34.7682C44.5843 34.7797 44.5929 34.7897 44.6033 34.7975C44.6137 34.8054 44.6257 34.8109 44.6384 34.8137C44.6511 34.8166 44.6642 34.8167 44.6769 34.814V34.8785C44.6737 34.9383 44.6474 34.9944 44.6036 35.035C44.6036 35.035 44.6036 35.035 44.6678 35.0903V35.3942L44.8236 35.4495V35.1456C44.8236 35.1456 44.8236 35.1456 44.8236 35.2285C44.8236 35.3114 44.8236 35.4495 44.8236 35.5048H44.9336C44.9269 35.4744 44.9269 35.443 44.9336 35.4127V35.3666H44.9978V35.4955L45.3002 35.5969H45.5019C45.5019 35.5969 45.5019 35.5968 45.6211 35.5508H45.9144H49.7185L51.9001 35.4955H52.615L53.4767 35.5692L52.5142 36.4902L52.2575 36.6837L52.0376 36.8679C51.9897 36.9115 51.9574 36.9698 51.9459 37.0337L51.8634 37.0797L50.4518 38.2033L50.3601 38.2678V38.3138L50.0209 38.5625L49.9293 38.6546L49.6818 38.3415L49.5168 38.4796L49.4618 38.5441H49.3976L48.9301 38.9401H48.8476L48.646 39.1796L47.7293 39.9809L47.6193 40.1098L47.1519 40.4598L46.9319 40.6624L46.6202 40.9019L46.4735 41.0492L46.2719 41.1966L46.1619 41.2703L46.0335 41.3716C45.9328 41.4743 45.8149 41.5584 45.6853 41.6202L45.6394 41.7215H45.5936L45.5386 41.786H45.4744L45.0253 42.182L44.9519 42.1084H44.8603H44.7961C44.7947 42.1484 44.784 42.1876 44.7649 42.2227C44.7458 42.2579 44.7188 42.2881 44.6861 42.311C44.6861 42.311 44.6861 42.3663 44.7869 42.3939V43.1307V43.3978V43.6649V44.1438L44.7411 44.899C44.7411 45.4056 44.6678 46.2897 44.7411 47.7633L44.6494 48.0212C44.8665 48.3655 44.9809 48.765 44.9794 49.1725C44.949 49.3656 44.887 49.5523 44.7961 49.7251V50.0106C44.7228 50.0106 44.5578 50.0659 44.6953 50.0106C44.8328 49.9553 44.8144 50.1027 44.8144 50.158V50.2225C44.7136 50.2225 44.6494 50.2224 44.6311 50.3053C44.6311 50.2132 44.7228 50.3882 44.9336 50.4343C44.9336 50.4343 44.9336 50.508 45.0344 50.5448L45.1353 50.9316H45.0986V50.8395V50.6369L45.1444 50.554H45.2636H45.3277H46.6294V50.6093L46.996 50.5632L47.4269 50.6093C47.491 50.6093 47.5185 50.5632 47.5185 50.4803H47.6193H47.7293H47.8668H48.0043H48.1418H48.2518L49.636 50.4251H50.5526L50.7176 50.3698H53.0184C53.3072 50.3634 53.5952 50.3356 53.88 50.2869H53.9625H53.7975H53.9075H53.9808H54.6225H54.4483H53.1009H52.7892H52.6975H55.6124C56.3824 50.3329 56.9782 50.379 57.4457 50.4435H58.7015H58.9032H59.169H59.4257L60.1131 50.3053H60.3698C60.9052 50.2088 61.4483 50.1626 61.9923 50.1672C62.1114 50.1672 62.1664 50.1027 62.1664 50.0751H62.0839H62.2673C62.2651 50.114 62.255 50.152 62.2377 50.1869C62.2204 50.2217 62.1961 50.2526 62.1664 50.2777L62.3681 50.1027C62.4597 50.1027 62.5056 50.1027 62.5056 50.2225L62.5881 50.1119V49.9001H62.7072C62.7072 49.9738 62.7072 50.0475 62.7072 50.0935C62.7072 50.1396 62.7072 50.2225 62.7714 50.2225C62.7714 50.1027 62.7714 49.983 62.7714 49.8725H62.8997H63.0006C62.9089 49.8725 62.8631 49.8725 62.8631 49.8725V49.8172H63.0647V50.3145H63.0097H63.3764Z" fill="black"/>
  </g>
  <defs>
    <clipPath id="clip0_13_1872">
      <rect width="85" height="52" fill="white"/>
    </clipPath>
  </defs>
</svg>