<svg width="124" height="91" viewBox="0 0 124 91" fill="none" xmlns="http://www.w3.org/2000/svg">
<g clip-path="url(#clip0_1_491)">
<path d="M56.3343 68.0818C74.5817 68.5766 94.1172 67.8006 112.314 66.3449C113.556 66.2452 114.901 66.0957 115.81 65.2451C116.719 64.3944 116.923 63.2092 117.059 62.0417C117.957 54.3964 116.812 45.9823 117.059 38.1946C117.297 29.9205 117.52 21.6463 117.728 13.3722C117.767 11.6851 117.771 9.87343 116.801 8.48887C115.302 6.33551 112.232 6.15755 109.599 6.18958L17.2885 7.36058C15.453 7.3855 13.478 7.45312 12.0182 8.56362C10.9806 9.35733 10.3581 10.5746 9.93944 11.8097C8.89468 14.8742 8.91616 18.1843 8.98414 21.4197C9.16542 30.3535 9.61385 39.2778 10.3294 48.1926C10.6872 52.6452 11.1023 57.0908 11.5996 61.5363C12.0504 65.5654 14.741 66.5193 18.6159 66.7827C23.8823 67.1665 29.1694 67.1784 34.4375 66.8183C34.67 68.4947 34.4732 70.9613 32.5376 73.5809C31.0313 75.6168 29.067 76.0724 27.9221 76.3251C41.9082 78.4286 50.2948 77.3431 56.3343 68.0818Z" fill="#0F0F0F"/>
<path d="M61.297 62.7892C79.5443 63.2839 99.0798 62.508 117.277 61.0523C118.519 60.9526 119.864 60.8031 120.773 59.9525C121.624 59.1516 121.885 57.9166 122.021 56.7491C122.919 49.1038 121.775 40.6897 122.021 32.902C122.26 24.6278 122.483 16.3537 122.69 8.07958C122.719 6.40672 122.723 4.58081 121.753 3.20337C120.254 1.06781 117.18 0.875605 114.551 0.907639L22.2404 2.07864C20.4049 2.10356 18.4299 2.17118 16.9701 3.28168C15.9325 4.07539 15.3099 5.29267 14.8877 6.52773C13.8466 9.59227 13.868 12.9024 13.936 16.1378C14.1173 25.0716 14.5657 33.9958 15.2813 42.9106C15.6391 47.3633 16.0541 51.8088 16.5515 56.2544C17.0023 60.2835 19.6929 61.2196 23.5678 61.5007C28.8342 61.8845 34.1213 61.8964 39.3893 61.5363C39.6684 64.7753 38.935 68.7439 37.0422 71.392C35.1188 74.0583 32.3152 75.968 29.1207 76.7878C43.1211 78.8842 55.2753 72.0504 61.297 62.7892Z" fill="white"/>
<path d="M12.6946 11.0338C12.8556 8.72378 13.2706 6.2928 14.4621 4.27113C15.6535 2.24946 17.7788 1.45218 20.0329 1.27066C22.5374 1.06778 25.1135 1.16388 27.6395 1.13185L35.6756 1.02863L51.8549 0.822192L84.1063 0.402198L100.178 0.199319L108.325 0.0961002C110.841 0.0640667 113.374 -0.060508 115.885 0.0355925C117.918 0.113897 120.161 0.49118 121.796 1.80099C123.642 3.27097 124.025 5.4279 124 7.65956C123.936 12.9451 123.742 18.2306 123.596 23.5126C123.453 28.7234 123.191 33.9377 123.352 39.152C123.51 44.2133 123.857 49.2782 123.56 54.3395C123.435 56.411 123.499 59.1694 121.771 60.6572C120.912 61.4011 119.785 61.6858 118.676 61.8317C117.495 61.9848 116.293 62.0417 115.098 62.1307C110.027 62.5151 104.952 62.8378 99.8742 63.0988C89.4982 63.6292 79.1222 63.8926 68.7463 63.8107C66.5757 63.7917 64.4027 63.7537 62.2273 63.6968C56.8998 71.5984 47.9407 76.7273 38.4878 77.8271C35.4112 78.1797 32.3013 78.1259 29.2389 77.667C28.738 77.5922 28.1261 77.4 27.8721 76.9124C27.8266 76.8222 27.8027 76.7227 27.8023 76.6217C27.8019 76.5208 27.8249 76.4211 27.8696 76.3305C27.9143 76.2399 27.9794 76.1608 28.0599 76.0993C28.1404 76.0379 28.2341 75.9958 28.3337 75.9763C31.45 75.1826 34.1693 73.2873 35.9833 70.6445C37.5575 68.3203 38.1837 65.3056 38.13 62.5044C33.3614 62.7587 28.5815 62.7159 23.8183 62.3763C22.0616 62.2482 20.2046 62.0204 18.6196 61.1946C17.8808 60.8281 17.2254 60.3146 16.6943 59.6858C16.1632 59.057 15.7675 58.3264 15.5319 57.5393C15.2698 56.4891 15.1093 55.4164 15.0524 54.3359C14.9141 53.0332 14.7805 51.7281 14.6517 50.4207C14.4132 47.8106 14.183 45.2004 13.9612 42.5903C13.5413 37.3154 13.2146 32.0359 12.9808 26.7515C12.8639 24.0702 12.7685 21.3901 12.6946 18.7111C12.623 16.1449 12.5192 13.5751 12.6946 11.0338ZM15.3029 18.5937C15.5653 28.7969 16.1735 38.9836 17.1276 49.1536C17.3602 51.6451 17.5391 54.1722 17.904 56.653C17.9927 57.3939 18.2364 58.108 18.6196 58.7494C18.771 58.9865 18.9526 59.203 19.1599 59.3936L19.2279 59.4541L19.3495 59.5502C19.4819 59.6463 19.6178 59.7318 19.7574 59.8136L20.0794 59.9702C20.1366 59.9952 20.4086 60.0948 20.4372 60.1091C20.7663 60.2123 21.1027 60.3013 21.4426 60.3724C21.7252 60.4294 21.9506 60.465 22.4265 60.5219C22.9024 60.5789 23.389 60.6109 23.8577 60.6429C26.4195 60.8209 28.9848 60.9099 31.5538 60.9099C34.0118 60.9099 36.4698 60.8173 38.9207 60.6536C39.486 60.6145 40.6417 60.8885 40.7097 61.6324C40.9888 65.0671 40.3519 68.8293 38.3876 71.723C37.0801 73.6187 35.3324 75.173 33.2927 76.2539C41.4869 76.4267 49.424 73.4043 55.4078 67.8327C57.1697 66.1915 58.7309 64.3493 60.0591 62.3443C60.0878 62.2869 60.1265 62.235 60.1736 62.1912C60.326 62.0514 60.512 61.9527 60.7137 61.9048C60.9154 61.8568 61.1261 61.8611 61.3257 61.9172C71.1614 62.177 81.0042 62.0702 90.8435 61.7072C95.8335 61.5268 100.822 61.2789 105.81 60.9633C108.272 60.809 110.73 60.6406 113.184 60.4579C114.365 60.3689 115.545 60.2799 116.726 60.1838C117.653 60.1091 118.665 60.0663 119.453 59.5147C120.24 58.963 120.526 57.913 120.662 57.0054C120.831 55.867 120.94 54.7205 120.987 53.5707C121.127 51.1539 121.095 48.7336 121.027 46.3169C120.884 41.4442 120.608 36.5894 120.755 31.7238C120.898 26.5368 121.036 21.3545 121.17 16.1769C121.234 13.5858 121.298 10.9958 121.36 8.40701C121.403 6.5989 121.592 4.17503 120.118 2.87234C119.858 2.63824 119.557 2.45258 119.231 2.32421C118.857 2.1621 118.465 2.0427 118.064 1.96828C117.203 1.83143 116.332 1.76832 115.46 1.77964C113.098 1.75828 110.518 1.83659 108.071 1.86862L92.543 2.06438L61.3865 2.45234L30.1012 2.84742C27.525 2.87945 24.9454 2.89725 22.3693 2.94352C20.3728 2.98267 18.3691 3.14996 17.1276 4.90824C15.8861 6.66652 15.4997 9.17937 15.3208 11.2936C15.1204 13.721 15.2313 16.1662 15.3029 18.5937Z" fill="#0F0F0F"/>
</g>
<defs>
<clipPath id="clip0_1_491">
<rect width="124" height="91" fill="white" transform="matrix(-1 0 0 1 124 0)"/>
</clipPath>
</defs>
</svg>
