<svg width="76" height="77" viewBox="0 0 76 77" fill="none" xmlns="http://www.w3.org/2000/svg">
<circle cx="38" cy="38.25" r="32" fill="white"/>
<circle cx="38" cy="38.25" r="37.5" stroke="white"/>
<g clip-path="url(#clip0_13_1598)">
<path fill-rule="evenodd" clip-rule="evenodd" d="M26.3139 25.175C26.3642 24.7491 26.5132 24.3408 26.7492 23.9826C26.9851 23.6245 27.3014 23.3263 27.6728 23.112C28.0443 22.8977 28.4607 22.7731 28.8889 22.7481C29.317 22.7231 29.7451 22.7984 30.1389 22.9681C32.1302 23.8193 36.5927 25.8425 42.2552 29.1106C47.9196 32.3806 51.9039 35.2362 53.6346 36.5318C55.1121 37.64 55.1158 39.8375 53.6364 40.9493C51.9227 42.2375 47.9871 45.0556 42.2552 48.3668C36.5177 51.6781 32.1077 53.6768 30.1352 54.5168C28.4364 55.2425 26.5352 54.1418 26.3139 52.31C26.0552 50.1687 25.5714 45.3068 25.5714 38.7406C25.5714 32.1781 26.0533 27.3181 26.3139 25.175Z" fill="#70C6B9"/>
</g>
<defs>
<clipPath id="clip0_13_1598">
<rect width="45" height="45" fill="white" transform="translate(15.6846 16.25)"/>
</clipPath>
</defs>
</svg>
